<?xml version="1.0" standalone="no"?>
<!DOCTYPE svg PUBLIC "-//W3C//DTD SVG 20010904//EN"
 "http://www.w3.org/TR/2001/REC-SVG-20010904/DTD/svg10.dtd">
<svg version="1.0" xmlns="http://www.w3.org/2000/svg"
 width="230.000000pt" height="230.000000pt" viewBox="0 0 230.000000 230.000000"
 preserveAspectRatio="xMidYMid meet">
<metadata>
Created by potrace 1.11, written by Peter Selinger 2001-2013
</metadata>
<g transform="translate(0.000000,230.000000) scale(0.100000,-0.100000)"
fill="#000000" stroke="none">
<path d="M1185 1879 c3 -4 -2 -10 -11 -13 -8 -3 -12 -2 -9 4 3 6 1 10 -4 10
-6 0 -11 -7 -11 -15 0 -8 -5 -15 -11 -15 -5 0 -7 6 -3 13 4 6 4 9 -1 5 -4 -4
-15 -3 -25 2 -12 6 -17 5 -17 -6 0 -8 6 -13 13 -10 8 3 16 0 20 -6 5 -7 2 -8
-6 -3 -9 5 -11 4 -6 -3 5 -9 15 -8 37 3 16 9 29 12 29 8 0 -5 5 -1 10 7 6 9
10 10 10 3 0 -15 -35 -35 -44 -26 -3 3 -6 -2 -6 -13 0 -16 -2 -17 -10 -4 -5 8
-10 11 -10 6 0 -5 -6 -3 -14 3 -13 11 -46 5 -46 -8 0 -4 -7 -8 -15 -8 -18 0
-20 13 -2 20 6 3 3 5 -9 4 -12 -1 -21 -7 -20 -15 1 -8 -5 -17 -13 -20 -9 -3
-11 0 -6 9 6 11 5 12 -6 2 -7 -7 -18 -13 -23 -13 -6 0 -4 4 4 10 8 5 11 13 6
17 -5 4 -11 3 -13 -4 -2 -7 -12 -9 -21 -6 -13 4 -12 2 3 -10 16 -13 17 -16 5
-17 -9 0 -21 5 -26 10 -13 13 -46 2 -37 -13 4 -6 0 -8 -10 -4 -9 3 -19 2 -22
-2 -6 -11 -45 -21 -45 -12 0 4 11 13 23 18 13 6 24 18 24 27 0 8 -4 13 -9 10
-5 -3 -5 -10 -2 -16 5 -8 1 -9 -10 -5 -9 4 -15 3 -13 -1 2 -4 -5 -15 -15 -25
-18 -17 -19 -17 -28 5 -10 22 -10 22 -5 -3 2 -14 -2 -34 -10 -45 -14 -18 -15
-18 -40 11 -25 29 -26 29 -9 3 15 -26 15 -28 0 -28 -10 0 -15 4 -11 9 9 15
-15 24 -30 11 -8 -6 -20 -8 -27 -4 -20 13 -45 11 -45 -2 0 -9 6 -10 17 -4 12
7 23 3 39 -11 11 -11 21 -24 21 -30 0 -6 5 -7 10 -4 6 4 4 12 -5 21 -15 16
-12 34 6 34 6 0 8 -4 5 -8 -2 -4 -1 -14 4 -22 5 -8 5 -22 -1 -32 -6 -12 -6
-18 0 -18 5 0 8 -9 6 -19 -3 -14 1 -18 12 -14 8 3 11 9 6 12 -4 3 -9 15 -11
26 -2 19 -2 19 12 2 12 -16 14 -16 20 -2 3 9 2 14 -3 11 -14 -9 -23 26 -11 38
8 8 9 6 5 -6 -6 -15 -1 -17 29 -16 20 1 43 9 52 19 9 10 20 16 25 14 4 -3 10
-1 14 5 4 6 11 8 16 5 5 -4 9 -2 9 4 0 10 -48 10 -66 -1 -5 -4 -16 -3 -23 1
-10 6 -9 10 4 14 11 5 14 3 9 -6 -6 -9 -4 -9 7 -1 8 6 22 10 32 9 9 -2 15 0
13 3 -2 4 7 8 20 8 13 1 21 -2 18 -7 -3 -5 0 -9 5 -9 6 0 11 4 11 9 0 6 9 8
20 6 11 -2 18 0 15 4 -3 5 2 12 11 15 25 10 27 7 13 -11 -12 -16 -12 -17 2 -6
9 7 20 9 24 5 5 -4 5 -1 1 6 -4 6 -3 12 1 12 5 0 15 -6 22 -12 8 -8 11 -8 8
-2 -9 15 19 39 28 24 3 -5 1 -10 -5 -10 -6 0 -8 -5 -4 -11 4 -8 9 -7 15 2 4 7
5 17 3 21 -3 4 -1 8 5 8 5 0 12 -6 14 -12 4 -10 6 -10 6 0 1 6 5 12 11 12 5 0
7 -6 4 -13 -3 -8 2 -14 10 -14 8 0 12 6 9 13 -3 8 7 11 34 9 21 -1 41 3 46 9
5 8 9 7 16 -2 7 -11 9 -11 14 2 4 9 12 16 18 16 8 0 7 -6 -2 -17 -12 -16 -12
-17 2 -6 9 7 18 11 21 8 2 -3 5 1 5 8 0 15 -34 20 -42 6 -11 -17 -42 9 -40 34
2 14 -2 24 -11 24 -7 0 -11 -4 -9 -8z m13 -55 c-1 -5 -9 -9 -16 -10 -10 -2
-11 1 -1 12 12 14 24 13 17 -2z m-88 2 c0 -3 -4 -8 -10 -11 -5 -3 -10 -1 -10
4 0 6 5 11 10 11 6 0 10 -2 10 -4z m-177 -39 c3 -8 -1 -14 -9 -14 -8 0 -14 6
-14 14 0 7 4 13 9 13 5 0 11 -6 14 -13z m-107 -65 c-9 -11 -30 -19 -48 -20
l-31 -1 27 15 c16 7 32 12 36 9 5 -3 11 -1 15 5 3 5 9 10 12 10 3 0 -1 -8 -11
-18z"/>
<path d="M997 1855 c-4 -8 -3 -16 1 -19 4 -3 9 4 9 15 2 23 -3 25 -10 4z"/>
<path d="M1226 1862 c-3 -5 1 -9 9 -9 8 0 12 4 9 9 -3 4 -7 8 -9 8 -2 0 -6 -4
-9 -8z"/>
<path d="M1395 1829 c-4 -6 -5 -12 -2 -15 2 -3 7 2 10 11 7 17 1 20 -8 4z"/>
<path d="M1474 1826 c1 -8 5 -18 8 -22 4 -3 5 1 4 10 -1 8 -5 18 -8 22 -4 3
-5 -1 -4 -10z"/>
<path d="M890 1820 c-9 -6 -10 -10 -3 -10 6 0 15 5 18 10 8 12 4 12 -15 0z"/>
<path d="M1300 1820 c0 -5 5 -10 10 -10 6 0 10 5 10 10 0 6 -4 10 -10 10 -5 0
-10 -4 -10 -10z"/>
<path d="M1415 1819 c-4 -6 -5 -12 -2 -15 2 -3 7 2 10 11 7 17 1 20 -8 4z"/>
<path d="M1330 1806 c0 -2 7 -7 16 -10 8 -3 12 -2 9 4 -6 10 -25 14 -25 6z"/>
<path d="M1430 1802 c0 -4 9 -8 19 -8 11 0 17 4 15 8 -3 4 -12 8 -20 8 -8 0
-14 -4 -14 -8z"/>
<path d="M1498 1799 c-4 -10 1 -15 13 -16 10 -1 19 3 19 8 0 6 -4 8 -9 5 -5
-4 -11 -1 -13 6 -3 8 -6 7 -10 -3z"/>
<path d="M730 1778 c0 -11 12 -10 30 2 12 7 10 9 -8 7 -12 0 -22 -5 -22 -9z"/>
<path d="M674 1772 c3 -5 0 -13 -6 -15 -9 -4 -10 -6 -1 -6 17 -1 25 16 12 25
-7 4 -9 3 -5 -4z"/>
<path d="M754 1759 c-3 -6 -2 -15 3 -20 5 -5 9 -1 10 11 2 22 -2 25 -13 9z"/>
<path d="M1616 1758 c3 -5 10 -6 15 -3 13 9 11 12 -6 12 -8 0 -12 -4 -9 -9z"/>
<path d="M995 1740 c3 -5 8 -10 11 -10 2 0 4 5 4 10 0 6 -5 10 -11 10 -5 0 -7
-4 -4 -10z"/>
<path d="M1118 1739 c-6 -4 -21 -6 -34 -4 -16 1 -21 -2 -17 -13 5 -12 2 -12
-15 -3 -13 7 -23 7 -27 2 -3 -6 -14 -8 -25 -6 -14 3 -17 -1 -13 -13 6 -15 4
-15 -10 -4 -22 18 -33 9 -31 -25 2 -42 3 -45 14 -38 8 5 8 11 0 20 -7 9 -6 16
4 24 10 9 16 8 26 -4 7 -9 10 -18 6 -22 -3 -3 -6 -1 -6 6 0 7 -5 9 -11 5 -8
-4 -7 -9 2 -15 9 -6 18 -3 27 8 9 13 12 14 12 2 0 -8 3 -10 8 -4 11 15 32 17
32 3 0 -9 4 -8 10 2 5 8 10 11 10 5 0 -20 -17 -38 -24 -26 -4 6 -12 11 -19 11
-8 0 -8 -3 1 -12 15 -15 15 -28 1 -28 -5 0 -8 4 -5 9 3 5 -2 15 -11 22 -15 12
-16 12 -11 -2 5 -13 2 -16 -14 -11 -14 3 -19 1 -14 -6 4 -7 2 -12 -3 -12 -6 0
-11 5 -11 11 0 5 -5 7 -10 4 -6 -4 -8 -10 -5 -15 3 -5 0 -12 -6 -16 -7 -4 -9
-3 -6 3 4 6 0 13 -8 17 -18 6 -30 -10 -13 -18 7 -3 4 -4 -7 -3 -12 1 -19 -3
-17 -11 2 -10 -2 -10 -19 -1 -19 10 -21 9 -16 -5 4 -11 3 -15 -4 -11 -5 4 -7
14 -4 24 4 13 -1 17 -23 16 -29 -1 -75 -38 -64 -51 4 -5 0 -3 -8 3 -8 6 -30 9
-48 7 -18 -2 -31 0 -27 5 3 5 0 13 -6 17 -7 4 -9 3 -6 -3 4 -6 0 -13 -8 -17
-9 -3 -12 -12 -8 -22 5 -13 3 -15 -7 -9 -18 11 -61 15 -55 5 3 -5 13 -6 23 -3
15 6 15 5 3 -10 -7 -10 -9 -17 -3 -17 6 0 12 6 15 13 3 8 9 6 20 -8 8 -11 13
-24 9 -29 -3 -5 2 -7 11 -3 10 3 17 2 17 -4 0 -15 -35 -6 -36 9 -3 23 -4 24
-17 13 -8 -6 -17 -8 -20 -4 -4 3 -7 -3 -7 -15 0 -12 5 -22 12 -22 6 0 8 -3 5
-7 -4 -3 -18 4 -32 17 -15 14 -25 18 -25 11 0 -11 -3 -11 -17 0 -11 10 -14 10
-9 2 11 -19 1 -16 -15 4 -8 9 -9 14 -3 10 6 -3 16 5 23 19 6 15 16 22 23 18 8
-5 6 -11 -5 -19 -10 -7 -17 -16 -17 -20 0 -4 6 -3 13 4 10 8 17 7 25 -1 9 -9
12 -9 12 0 0 7 -4 12 -9 12 -5 0 -8 12 -6 28 3 30 -12 55 -27 46 -6 -4 -5 -10
3 -15 7 -4 10 -12 5 -16 -5 -4 -11 -2 -13 5 -3 6 -9 10 -13 7 -5 -3 -7 -12 -3
-20 3 -8 0 -15 -7 -15 -6 0 -8 -5 -4 -12 6 -10 4 -10 -7 -2 -8 6 -24 10 -37 9
-23 -2 -22 -1 5 22 15 14 22 22 16 18 -9 -4 -11 -1 -6 10 3 9 9 13 12 8 3 -4
13 -9 21 -11 10 -1 9 2 -4 13 -11 8 -15 15 -10 15 6 0 16 -6 23 -12 11 -11 12
-10 6 1 -6 10 -4 12 5 6 9 -5 11 -4 6 3 -4 7 -3 12 2 12 6 0 12 -7 16 -15 3
-8 12 -12 21 -9 8 3 15 1 15 -6 0 -6 -5 -8 -12 -4 -6 4 -8 3 -5 -3 7 -11 42
-11 42 0 0 3 8 12 19 20 17 13 16 14 -15 28 -19 7 -37 13 -41 11 -10 -3 -10
12 -1 21 3 4 11 2 18 -3 8 -6 18 -5 31 5 17 13 17 14 2 15 -10 0 -18 -5 -18
-11 0 -5 -4 -8 -9 -5 -5 4 -8 17 -7 31 2 13 -1 22 -6 19 -5 -3 -7 -12 -4 -20
7 -17 -10 -19 -18 -1 -3 6 -3 1 1 -13 5 -23 5 -24 -13 -10 -15 11 -16 11 -6 0
16 -18 16 -38 0 -22 -15 15 -28 15 -28 1 0 -5 4 -8 9 -4 5 3 12 1 15 -4 3 -5
-1 -11 -9 -15 -8 -3 -19 3 -25 12 -8 12 -10 13 -7 2 2 -8 -3 -20 -12 -27 -26
-20 -32 -15 -15 15 15 25 15 26 -1 7 -9 -11 -24 -19 -33 -17 -15 2 -15 1 1 -8
9 -6 15 -16 11 -22 -4 -7 -9 -7 -13 0 -4 6 -12 4 -21 -6 -13 -14 -12 -15 2 -9
12 4 16 1 15 -14 -1 -10 -7 -19 -15 -19 -7 0 -10 5 -7 10 3 6 1 10 -5 10 -7 0
-9 -7 -6 -15 18 -44 17 -49 -3 -26 -12 13 -21 18 -21 12 0 -7 -5 -9 -12 -5 -7
4 -4 -2 6 -14 20 -23 9 -31 -13 -9 -11 10 -12 9 -5 -3 14 -25 14 -42 -1 -36
-8 3 -17 0 -21 -6 -4 -6 -3 -8 4 -4 6 4 10 -1 9 -13 0 -11 -10 -22 -20 -25
-10 -2 -16 -9 -13 -14 3 -6 -1 -12 -9 -16 -17 -6 -20 -26 -4 -26 5 0 7 5 4 10
-7 11 8 14 18 4 9 -10 -4 -34 -16 -27 -6 3 -7 1 -3 -5 4 -7 3 -12 -3 -12 -5 0
-11 5 -13 12 -3 8 -6 7 -10 -3 -7 -18 20 -22 40 -6 8 6 12 6 12 -1 0 -5 15
-17 33 -26 17 -8 26 -16 19 -16 -7 0 -24 7 -37 16 -14 9 -25 12 -25 8 1 -21
23 -36 58 -37 14 0 16 -13 2 -22 -5 -3 -10 -1 -10 5 0 6 -4 8 -10 5 -5 -3 -10
-1 -10 4 0 6 -9 3 -20 -6 -25 -22 -26 -37 -2 -24 10 5 24 6 31 2 10 -7 10 -9
-2 -14 -9 -3 -13 -14 -10 -30 3 -14 -1 -28 -7 -32 -9 -6 -7 -12 8 -24 17 -12
19 -19 11 -31 -9 -13 -10 -13 -6 2 6 17 -18 32 -35 22 -6 -4 -5 4 2 17 10 21
10 22 -3 7 -8 -10 -17 -15 -20 -11 -4 3 1 12 11 20 9 8 11 11 3 7 -10 -5 -12
-3 -6 6 5 9 4 11 -3 6 -7 -4 -12 -2 -12 3 0 6 4 11 9 11 10 0 9 19 -2 38 -5 7
-3 12 5 12 10 0 9 3 -2 11 -13 9 -12 10 3 5 12 -4 16 -2 11 6 -5 7 -2 8 7 3 8
-5 5 1 -5 13 -21 25 -36 31 -16 7 15 -18 -1 -20 -18 -3 -9 9 -12 9 -12 0 0 -7
4 -12 8 -12 11 0 9 -40 -1 -58 -5 -7 -13 -9 -19 -6 -7 4 -8 2 -4 -5 6 -8 12
-9 20 -2 10 8 13 1 12 -29 0 -22 -4 -40 -8 -40 -4 0 -8 -5 -8 -11 0 -8 4 -9
13 0 24 19 28 -1 4 -21 -20 -18 -20 -20 -3 -16 10 1 21 -3 23 -10 3 -7 -1 -11
-7 -10 -7 2 -15 -4 -17 -12 -4 -12 -3 -12 5 -1 7 9 12 10 16 2 4 -6 11 -9 15
-6 5 2 9 -7 9 -22 0 -25 -1 -26 -14 -8 -12 16 -16 17 -27 5 -7 -7 -7 -10 -1
-7 14 8 37 -17 26 -28 -4 -5 -2 -5 5 -2 16 10 22 -14 11 -37 -7 -12 -7 -16 0
-12 12 7 34 -18 24 -29 -4 -5 -1 -5 6 -1 7 4 10 12 7 17 -4 5 1 9 9 9 9 0 16
4 16 10 0 5 -6 9 -12 7 -7 -1 -12 4 -11 10 2 7 -1 12 -6 10 -5 -1 -9 2 -9 7 0
5 -6 13 -14 17 -11 7 -11 9 1 9 10 0 11 3 2 14 -9 11 -9 16 0 21 8 6 7 10 -5
17 -9 5 -14 14 -10 19 3 5 0 16 -6 24 -10 12 -9 15 4 15 10 0 14 -4 11 -10 -3
-5 9 -19 27 -31 25 -15 27 -19 9 -14 l-23 7 23 -31 c17 -23 20 -34 12 -42 -9
-9 -8 -15 3 -26 20 -20 18 -30 -11 -58 -13 -14 -20 -25 -16 -25 5 0 14 7 21
15 7 8 17 12 22 9 5 -3 0 -13 -11 -21 -12 -8 -21 -20 -21 -26 0 -8 4 -7 9 2 8
12 12 12 25 2 12 -10 13 -18 5 -35 -9 -18 -8 -18 9 3 13 16 21 20 26 12 4 -6
2 -11 -3 -11 -16 0 -13 -27 4 -33 8 -4 12 -15 10 -26 -3 -14 1 -18 12 -14 11
4 11 8 3 13 -8 5 -9 10 -2 14 6 3 13 2 17 -4 3 -5 12 -10 18 -10 7 0 6 4 -3
10 -8 5 -10 10 -4 10 6 0 14 -3 18 -7 6 -7 32 -12 73 -15 21 -2 22 -11 2 -14
-5 -1 -13 -2 -19 -3 -5 0 -10 -5 -10 -9 0 -12 44 -10 53 2 5 7 7 5 6 -4 -3
-20 11 -50 23 -50 5 0 7 4 3 9 -3 5 -1 12 5 16 6 4 8 10 5 15 -3 5 -1 11 4 14
5 4 8 -2 6 -11 -2 -10 -4 -18 -5 -18 -1 0 -3 -8 -5 -17 -2 -9 4 -19 12 -22 11
-4 13 -1 8 14 -4 12 -2 20 5 20 6 0 9 -4 6 -8 -8 -14 8 -31 36 -36 15 -2 29
-1 31 2 2 4 3 2 1 -4 -1 -6 8 -16 22 -23 23 -10 28 -7 26 19 0 3 10 5 23 5 13
0 21 -3 19 -7 -2 -4 0 -9 5 -13 5 -3 8 -15 6 -26 -3 -13 0 -19 8 -16 7 2 11
11 9 21 -2 9 2 16 8 16 5 0 9 -3 9 -7 -3 -21 2 -34 11 -28 6 4 8 10 5 15 -3 5
0 12 6 16 7 4 9 3 6 -3 -4 -6 1 -17 10 -24 14 -12 15 -11 9 8 -4 12 -2 24 3
27 8 5 9 -30 2 -53 0 -2 -8 2 -16 9 -13 11 -15 9 -13 -11 2 -14 -2 -23 -9 -22
-13 3 -39 -25 -30 -33 3 -3 11 -6 19 -8 7 -1 20 -6 28 -11 13 -8 13 -7 1 8 -7
9 -17 15 -21 12 -5 -3 -11 -1 -15 5 -8 13 28 13 42 -1 8 -8 13 -8 17 0 4 6 12
11 18 11 6 0 5 -7 -3 -17 -8 -9 -9 -14 -2 -10 6 4 13 1 16 -5 2 -7 8 -9 13 -5
5 4 4 11 -2 15 -11 8 -12 27 -1 38 12 12 8 24 -8 24 -8 0 -14 -6 -12 -12 1 -7
-4 -12 -11 -10 -8 1 -11 -2 -6 -10 5 -10 4 -10 -6 -1 -9 9 -8 15 9 32 12 12
18 28 15 38 -5 15 -4 15 4 3 6 -8 8 -18 6 -22 -3 -4 0 -8 6 -8 6 0 13 7 16 15
6 14 8 13 21 -2 14 -17 14 -17 9 0 -6 20 9 23 17 3 7 -18 -24 -31 -35 -14 -9
15 -9 14 -12 -32 -3 -44 11 -75 27 -62 7 5 20 8 29 7 10 -2 20 1 24 6 3 5 10
7 15 3 6 -3 5 -12 -3 -22 -11 -15 -10 -15 8 0 11 10 30 16 43 13 12 -2 24 2
27 9 3 8 17 12 34 11 15 -1 34 1 42 6 10 7 10 9 0 9 -7 0 -10 5 -7 10 4 6 11
7 17 4 17 -11 59 -13 53 -4 -3 5 0 10 6 12 8 3 6 14 -5 37 -10 18 -15 35 -13
38 3 2 8 -5 12 -16 4 -14 11 -18 23 -14 14 6 15 4 5 -8 -14 -17 -1 -45 16 -35
6 4 9 11 6 16 -3 5 -1 11 5 15 5 3 10 1 10 -4 0 -15 45 -7 46 7 3 25 5 27 14
12 8 -12 11 -12 28 3 10 9 22 14 25 10 4 -3 7 -1 7 5 0 17 -15 15 -30 -3 -7
-8 -17 -12 -24 -8 -19 12 -56 11 -49 -1 4 -6 -2 -4 -12 4 -15 12 -17 12 -10 1
6 -10 4 -12 -5 -6 -9 6 -11 4 -5 -5 5 -9 4 -11 -3 -6 -16 10 -15 12 10 35 15
14 25 18 33 11 9 -7 16 -6 24 4 9 10 8 16 -3 25 -10 8 -16 9 -21 1 -8 -12 -25
-4 -25 13 0 7 4 6 10 -3 6 -10 10 -11 10 -2 0 18 13 15 38 -8 21 -20 27 -18
22 5 -1 5 2 6 6 2 11 -11 14 -38 3 -31 -5 3 -9 -1 -9 -8 0 -10 -2 -10 -9 1 -5
8 -11 9 -15 3 -19 -31 56 -14 81 18 10 13 13 12 21 -9 7 -20 10 -21 15 -8 4
10 2 17 -2 17 -5 0 -8 6 -7 13 3 19 16 37 29 37 8 0 8 -3 -1 -12 -15 -15 -15
-28 -1 -28 5 0 8 4 4 10 -3 5 8 16 24 25 16 8 33 19 36 25 7 12 -13 34 -35 38
-9 1 -5 -5 8 -16 13 -10 20 -21 16 -25 -11 -10 -26 -9 -19 2 3 5 0 13 -6 17
-8 5 -9 3 -4 -6 5 -8 4 -11 -3 -6 -6 3 -13 2 -17 -4 -4 -6 -11 -8 -16 -5 -5 4
-9 -1 -9 -9 0 -9 -6 -15 -12 -13 -7 1 -12 -5 -10 -13 2 -8 0 -11 -5 -7 -4 5
-8 14 -8 19 0 6 -6 13 -14 16 -9 3 -11 0 -6 -8 6 -9 4 -11 -4 -5 -9 5 -10 10
-2 18 7 7 15 6 25 -2 10 -8 16 -9 21 -1 3 5 1 10 -4 10 -6 0 -11 5 -11 11 0 5
5 7 10 4 6 -3 14 4 19 17 9 21 10 21 11 3 1 -20 1 -20 15 -1 18 24 11 36 -19
30 -15 -2 -26 2 -30 12 -4 10 -2 13 7 7 6 -4 27 -8 45 -10 24 -2 31 1 26 10
-4 6 -4 9 1 5 9 -9 35 9 35 24 0 6 -7 5 -15 -2 -8 -7 -15 -9 -15 -5 0 4 -6 3
-13 -3 -9 -8 -16 -6 -25 8 -7 12 -8 21 -2 25 6 4 9 1 8 -7 -4 -16 31 -18 51
-4 8 6 16 10 18 9 1 -2 6 -3 11 -3 4 0 0 5 -8 10 -9 6 -11 10 -3 10 7 0 11 6
9 13 -1 6 -1 9 1 5 3 -5 9 -8 14 -8 12 0 8 32 -6 42 -5 4 -6 11 -1 15 5 4 11
2 13 -5 3 -6 9 -10 13 -7 5 3 7 12 3 20 -3 8 0 15 7 15 6 0 8 -4 5 -10 -3 -5
1 -10 9 -10 8 0 14 -8 13 -19 0 -11 -5 -17 -9 -15 -5 3 -6 10 -3 15 4 5 2 9
-4 9 -18 0 -23 -20 -7 -26 9 -3 13 -11 10 -16 -4 -6 -10 -5 -16 3 -8 11 -9 10
-4 -3 3 -10 2 -17 -2 -17 -20 3 -32 -2 -27 -11 4 -6 11 -8 16 -4 12 7 41 -15
33 -27 -3 -5 2 -6 10 -3 13 5 12 9 -6 23 l-21 17 28 22 c15 12 22 22 16 22 -9
0 -9 5 -1 20 6 11 15 18 19 15 5 -3 12 2 15 11 3 8 2 12 -4 9 -5 -3 -20 -8
-32 -10 -22 -4 -22 -4 -4 10 11 8 24 15 29 15 5 0 6 7 3 16 -8 20 12 46 28 38
6 -3 1 3 -11 14 -26 23 -30 34 -9 26 8 -3 16 -1 20 4 3 5 -5 7 -17 6 -12 -1
-26 -3 -31 -3 -5 -1 -2 -9 5 -18 12 -14 12 -16 0 -8 -10 6 -12 4 -6 -5 5 -9 4
-11 -4 -6 -6 4 -17 3 -24 -2 -9 -8 -13 -3 -13 19 -1 16 3 29 8 29 5 0 6 5 2
12 -5 7 -3 8 6 3 7 -4 16 -2 22 6 7 10 8 9 3 -6 -6 -19 -5 -18 14 2 23 25 28
38 9 26 -25 -15 -41 -11 -61 13 -19 24 -20 25 -41 7 -19 -16 -19 -16 2 8 12
14 19 28 16 32 -4 4 -3 12 3 19 8 12 9 19 4 46 -1 4 -5 0 -11 -8 -5 -8 -12
-11 -16 -7 -4 4 1 14 12 21 18 14 18 15 1 12 -10 -1 -23 -9 -28 -17 -7 -11 -9
-11 -9 4 0 15 10 21 31 19 4 -1 15 8 24 18 25 27 38 25 58 -10 10 -16 15 -30
11 -30 -5 0 -3 -5 4 -12 15 -15 16 -42 0 -32 -7 4 -8 3 -4 -5 4 -6 11 -9 16
-6 12 7 26 -17 24 -42 0 -13 3 -23 9 -23 6 0 7 -3 4 -7 -4 -3 -2 -12 4 -20 9
-10 8 -13 -1 -13 -8 0 -9 -4 -3 -12 5 -7 8 -23 7 -35 0 -13 2 -23 6 -23 4 0 7
25 7 55 0 30 -4 55 -9 55 -4 0 -8 7 -8 15 0 8 6 14 12 12 7 -1 14 8 16 21 2
12 8 20 13 17 5 -4 12 1 15 9 3 9 10 13 15 10 5 -3 6 3 2 12 -5 13 -3 15 8 9
8 -5 11 -5 6 1 -5 5 -14 9 -20 9 -7 0 -11 9 -9 20 2 16 1 17 -7 5 -7 -9 -6
-19 0 -27 12 -13 -2 -47 -17 -41 -5 1 -10 -7 -12 -20 -2 -12 -8 -20 -13 -16
-5 3 -7 10 -3 15 3 5 2 9 -3 8 -24 -4 -25 3 -3 17 20 12 21 14 4 9 -14 -4 -21
-1 -21 10 0 11 6 13 20 9 18 -6 18 -5 0 13 -16 16 -19 17 -25 3 -4 -8 -7 -12
-9 -7 -6 22 -3 33 11 39 11 5 9 7 -8 7 -13 1 -20 5 -17 11 3 6 1 10 -5 10 -6
0 -8 5 -5 10 4 6 17 3 35 -10 26 -18 30 -19 56 -5 16 8 22 15 13 15 -8 0 -20
-5 -26 -11 -14 -14 -66 18 -56 35 4 7 1 6 -9 -1 -8 -7 -19 -9 -23 -5 -5 4 -5
2 -1 -5 3 -6 1 -15 -5 -19 -9 -5 -10 2 -5 27 6 30 5 31 -7 15 -11 -15 -16 -16
-22 -6 -5 8 -4 11 2 7 5 -3 9 7 9 24 -1 16 -8 34 -16 39 -13 9 -13 10 0 10 17
-1 50 -23 50 -34 0 -4 -4 -4 -10 -1 -5 3 -10 1 -10 -5 0 -7 6 -10 13 -7 22 7
13 29 -19 46 -26 14 -30 20 -22 36 7 12 7 16 0 11 -6 -3 -17 3 -25 15 -10 13
-17 17 -22 10 -3 -6 -11 -9 -16 -6 -5 4 -9 1 -9 -6 0 -16 -13 -3 -16 17 -2 11
3 13 19 8 29 -8 11 9 -25 24 -17 7 -30 8 -33 2 -4 -6 -12 -10 -18 -10 -7 1 -1
10 12 20 18 15 19 20 7 20 -9 0 -16 -4 -16 -10 0 -5 -6 -7 -14 -4 -21 8 -39
-31 -26 -56 6 -11 16 -20 22 -20 6 0 5 9 -4 23 -16 23 -13 47 4 47 6 0 5 -6
-2 -16 -11 -12 -11 -15 1 -12 9 2 13 -4 11 -16 -3 -14 1 -17 13 -12 9 3 14 2
10 -4 -4 -6 -3 -9 2 -8 4 2 9 0 11 -4 5 -17 1 -20 -12 -8 -11 9 -19 9 -33 0
-16 -10 -15 -10 5 -5 12 4 22 3 23 -2 0 -4 2 -19 3 -31 2 -13 -3 -26 -11 -29
-7 -3 -11 -9 -8 -13 3 -5 1 -11 -4 -14 -5 -4 -8 2 -6 11 2 10 4 18 5 18 1 0 3
10 6 22 3 16 -2 22 -19 25 -16 2 -21 9 -19 23 2 16 1 17 -7 5 -11 -16 3 -40
24 -40 6 0 12 -7 12 -15 0 -19 -5 -19 -24 0 -8 9 -18 13 -21 10 -4 -3 0 -10 8
-15 11 -7 11 -10 2 -10 -7 0 -15 7 -18 15 -4 8 -11 12 -18 8 -6 -4 -5 1 3 10
11 14 11 20 1 32 -9 11 -10 18 -1 29 9 10 8 15 -3 19 -9 4 -18 2 -21 -3 -4 -6
-1 -10 5 -10 8 0 8 -6 0 -20 -6 -11 -16 -18 -22 -14 -7 4 -6 9 2 14 9 5 3 12
-16 22 -20 9 -29 21 -29 37 0 13 -7 26 -15 29 -13 5 -13 3 0 -13 12 -15 12
-17 1 -10 -11 6 -13 4 -8 -8 3 -9 3 -18 -1 -20 -4 -2 -1 -2 6 -1 6 2 12 0 12
-5 0 -18 -14 -19 -42 -5 -24 13 -32 13 -45 2 -14 -11 -15 -10 -9 12 5 17 4 21
-2 11 -8 -11 -10 -11 -15 0 -4 8 -5 1 -4 -15 1 -18 -3 -30 -13 -33 -13 -4 -13
-3 0 6 26 18 3 23 -24 6 -16 -11 -26 -13 -26 -6 0 6 7 11 16 11 8 0 13 4 10 9
-3 5 -19 7 -36 6 -20 -2 -30 2 -30 11 0 8 -7 14 -15 14 -18 0 -20 -16 -2 -24
6 -2 2 -4 -10 -2 -12 1 -26 6 -30 11 -5 4 -2 5 5 1 6 -4 12 -2 12 4 0 8 -7 9
-17 5 -10 -4 -24 -8 -30 -8 -16 0 -16 -2 -2 -30 9 -20 9 -20 -4 -5 -8 10 -18
14 -22 10 -5 -4 -5 -2 -1 5 3 6 1 15 -5 19 -8 5 -9 3 -4 -6 6 -9 2 -10 -16 -5
l-24 8 25 -22 25 -21 -29 14 c-27 13 -31 13 -42 -2 -7 -9 -10 -20 -8 -24 3 -4
-5 -5 -18 -3 -12 3 -30 -2 -39 -11 -13 -12 -19 -12 -25 -3 -5 8 -3 10 6 4 9
-6 11 -4 5 5 -5 8 -4 11 3 6 6 -3 14 -1 17 5 4 5 14 8 22 5 8 -3 11 -1 8 4 -4
6 -3 9 2 8 7 -3 13 5 13 18 0 3 -13 -4 -30 -16 -16 -12 -30 -18 -30 -14 0 4
-9 -1 -20 -11 -11 -10 -20 -15 -20 -11 0 12 -45 -24 -45 -37 -1 -6 -6 -11 -13
-9 -7 1 -12 -2 -12 -8 0 -5 -7 -10 -16 -10 -8 0 -12 -4 -9 -10 3 -5 3 -10 -2
-10 -4 0 -18 -15 -30 -33 -24 -34 -30 -52 -15 -43 5 3 9 -1 9 -8 0 -8 -8 -11
-19 -8 -10 2 -18 -1 -18 -7 0 -7 4 -10 9 -7 5 3 15 -2 22 -12 13 -15 12 -16
-3 -4 -14 12 -19 10 -33 -11 -11 -17 -14 -34 -9 -52 6 -22 4 -26 -7 -20 -12 8
-12 6 0 -8 7 -9 11 -24 7 -33 -3 -8 0 -25 6 -37 7 -12 11 -26 10 -30 -1 -5 2
-6 7 -3 5 3 12 -1 15 -10 4 -10 2 -13 -7 -9 -6 4 -4 0 5 -8 10 -8 15 -16 13
-19 -3 -3 3 -11 12 -19 17 -13 17 -13 3 6 -14 19 -14 19 3 6 9 -7 17 -19 17
-26 0 -7 17 -25 37 -41 35 -27 51 -34 81 -36 6 -1 12 -5 12 -10 0 -5 4 -7 9
-3 5 3 12 1 16 -4 3 -6 13 -7 22 -4 10 4 14 2 10 -4 -5 -7 9 -10 38 -7 25 2
43 -1 40 -6 -3 -5 7 -5 24 0 16 4 32 6 35 3 2 -3 11 -1 18 3 13 9 18 10 39 13
5 0 7 7 3 14 -5 7 0 6 11 -3 17 -14 18 -13 12 4 -6 16 -5 17 8 6 10 -8 15 -9
15 -1 0 6 7 11 16 11 10 0 14 6 11 14 -3 8 1 13 10 12 9 0 28 16 43 38 25 37
36 71 18 60 -4 -3 -5 2 -2 10 3 9 1 16 -5 16 -6 0 -12 -8 -12 -17 -1 -10 -2
-22 -4 -28 -1 -5 -3 -16 -3 -24 -1 -8 -8 -11 -18 -7 -11 4 -15 2 -11 -7 3 -8
-3 -13 -14 -14 -12 -1 -17 3 -13 9 4 6 2 8 -4 4 -6 -3 -9 -16 -7 -27 4 -18 2
-19 -12 -7 -14 11 -16 11 -9 -1 7 -10 3 -12 -14 -6 -17 5 -20 4 -15 -5 6 -10
3 -10 -11 -2 -14 8 -21 6 -32 -6 -7 -10 -11 -12 -9 -7 3 6 -2 16 -10 24 -13
12 -14 11 -8 -7 5 -18 3 -21 -12 -15 -10 3 -24 11 -32 17 -12 9 -13 8 -8 -6 4
-12 2 -15 -9 -11 -24 9 -10 28 18 25 15 -1 28 4 31 11 3 8 -1 14 -9 14 -7 0
-11 -5 -7 -10 3 -5 -4 -4 -16 2 -11 7 -21 8 -21 4 0 -4 -5 -1 -11 7 -9 12 -10
12 -5 -3 3 -11 4 -23 1 -27 -7 -11 -35 -1 -35 12 0 5 5 6 10 3 6 -3 10 1 10 9
0 9 -4 16 -9 16 -14 0 -32 -26 -23 -35 4 -5 1 -5 -6 -1 -9 5 -10 12 -3 19 5 7
10 16 10 21 1 11 31 18 31 7 0 -12 33 -10 49 3 12 9 13 8 6 -3 -6 -11 -4 -13
7 -8 9 3 19 3 23 -1 4 -4 12 -7 18 -7 7 0 11 -8 11 -17 -1 -14 2 -16 18 -7 10
6 22 17 25 25 5 13 9 12 27 -3 20 -17 20 -17 6 0 -12 16 -12 20 0 27 9 5 19 5
26 -1 8 -7 15 -6 20 2 4 8 3 9 -4 5 -7 -4 -12 -2 -12 3 0 6 5 11 12 11 9 0 9
3 0 12 -7 7 -12 17 -12 22 0 6 5 4 10 -4 8 -13 11 -13 22 -1 11 12 10 12 -2 6
-12 -7 -13 -6 -3 7 7 8 9 19 5 23 -4 5 -1 5 6 1 7 -4 26 -9 42 -11 22 -3 28
-1 23 11 -3 8 -12 13 -20 10 -8 -3 -11 -1 -8 4 3 6 1 10 -5 10 -7 0 -10 -7 -6
-17 5 -15 4 -15 -9 1 -18 23 -19 33 -5 41 6 3 10 11 10 17 0 5 -9 0 -20 -13
-11 -13 -20 -19 -19 -14 3 24 -2 36 -13 29 -8 -5 -9 2 -5 27 5 26 4 30 -4 17
-12 -22 -26 -23 -26 -3 0 8 4 12 9 9 4 -3 8 -3 8 0 0 3 -9 10 -19 16 -17 9
-19 7 -16 -12 l4 -21 -20 22 -21 22 -22 -20 c-12 -12 -31 -21 -42 -21 -15 0
-16 2 -4 9 8 6 18 7 24 4 5 -3 6 -1 2 5 -5 9 -15 8 -37 -3 -30 -16 -40 -29
-15 -19 28 11 26 -15 -2 -30 -16 -8 -29 -22 -29 -30 0 -8 5 -12 10 -9 6 4 7 1
3 -6 -5 -7 -14 -10 -21 -7 -7 2 -18 -1 -24 -7 -9 -9 -11 -8 -5 6 5 14 2 16
-12 11 -15 -5 -16 -4 -5 4 8 6 20 8 28 5 7 -3 13 0 13 6 0 6 -5 10 -12 9 -13
-3 -19 50 -6 58 4 3 4 13 -2 24 -7 13 -6 19 6 24 8 3 12 11 8 17 -4 7 -3 9 4
5 6 -3 14 -1 18 5 13 21 87 49 101 37 7 -6 10 -15 7 -20 -4 -6 6 -2 22 8 31
21 33 21 45 2 7 -10 9 -10 9 0 0 7 4 10 10 7 6 -4 7 1 4 12 -5 14 -4 15 4 4 5
-7 16 -11 23 -9 8 3 20 -2 27 -11 8 -9 11 -10 7 -4 -4 9 -1 11 9 7 9 -3 13
-11 9 -18 -3 -6 -3 -8 2 -4 4 4 15 2 23 -5 13 -10 14 -9 7 3 -8 13 -6 13 8 1
9 -7 14 -18 10 -25 -4 -7 -1 -6 9 1 15 13 28 8 28 -11 0 -6 -5 -4 -11 4 -9 13
-10 13 -6 0 2 -8 13 -14 24 -12 12 2 23 -4 27 -14 5 -12 3 -15 -7 -8 -7 5 -5
2 5 -7 9 -9 14 -20 10 -24 -4 -5 1 -5 11 -2 10 4 16 3 12 -2 -3 -5 -2 -11 2
-14 5 -2 2 -2 -6 0 -11 3 -11 0 -3 -10 7 -8 9 -16 6 -20 -3 -3 3 -10 14 -16
17 -9 23 -43 10 -57 -4 -3 -5 6 -4 20 2 15 1 24 -3 21 -11 -12 -8 -64 3 -58 6
3 5 0 -1 -8 -16 -16 -17 -33 -2 -24 6 4 5 -2 -2 -13 -7 -12 -17 -18 -23 -15
-5 3 -6 1 -2 -5 3 -6 -4 -27 -16 -48 -12 -21 -18 -35 -12 -31 6 3 11 0 11 -7
0 -8 -8 -11 -19 -8 -10 2 -18 -1 -18 -7 0 -7 5 -9 12 -5 7 5 8 3 4 -5 -5 -7
-14 -10 -21 -7 -7 2 -16 -2 -19 -10 -4 -10 -2 -12 6 -8 7 4 8 3 4 -5 -6 -9
-11 -9 -24 1 -12 10 -14 10 -8 1 4 -8 1 -13 -9 -13 -8 0 -18 -7 -21 -15 -4 -8
-11 -12 -17 -8 -6 4 -8 0 -4 -11 4 -9 3 -14 -2 -11 -5 3 -12 1 -15 -3 -3 -5
-17 -8 -30 -7 -18 2 -27 -3 -31 -16 -4 -10 -11 -19 -17 -19 -6 0 -6 6 2 15 7
9 10 18 6 22 -3 3 -6 1 -6 -6 0 -6 -6 -11 -12 -10 -28 3 -37 -2 -32 -18 5 -17
5 -17 -6 0 -11 17 -36 25 -26 8 3 -5 -1 -11 -9 -15 -8 -3 -17 -1 -20 4 -7 11
-33 9 -54 -4 -10 -7 -12 -6 -6 4 6 10 2 11 -19 6 -14 -3 -26 -2 -26 3 0 5 -8
8 -17 7 -10 -2 -31 1 -46 5 -20 6 -30 4 -33 -6 -7 -16 -33 -13 -44 5 -4 7 -6
19 -3 27 6 16 -20 17 -47 3 -15 -8 -21 -6 -29 7 -6 10 -11 14 -11 10 0 -5 -7
-1 -16 8 -27 26 -9 27 19 1 23 -21 28 -22 44 -10 13 10 14 13 2 9 -8 -3 -27 5
-43 20 -15 14 -32 22 -38 19 -7 -4 -8 -2 -4 4 4 7 2 12 -3 12 -6 0 -11 8 -11
18 -1 15 -2 15 -16 -3 -15 -20 -16 -20 -12 0 2 12 -3 20 -12 20 -8 0 -15 7
-15 15 0 8 5 14 12 13 7 -2 10 4 6 13 -4 11 -9 12 -16 5 -17 -17 -24 -13 -24
15 0 15 -6 30 -13 34 -7 4 -9 13 -6 19 9 14 36 15 36 1 0 -5 -8 -6 -17 -3 -16
6 -16 5 -4 -10 10 -13 17 -15 27 -6 8 6 14 8 14 4 0 -4 -8 -14 -17 -21 -17
-12 -16 -13 5 -9 12 2 20 0 17 -6 -4 -5 -1 -9 5 -9 6 0 9 -4 5 -9 -3 -5 0 -13
6 -17 8 -5 8 -9 -1 -14 -9 -5 -9 -9 -1 -14 6 -4 11 -3 11 3 0 6 7 8 15 5 8 -4
15 -1 15 6 0 6 -4 9 -9 6 -5 -3 -12 1 -15 10 -9 22 -8 26 6 18 7 -4 8 -3 4 5
-4 6 -12 9 -17 6 -5 -4 -9 3 -9 14 0 11 -4 22 -9 25 -7 5 -22 56 -20 72 0 4
-5 11 -13 15 -7 5 -8 9 -3 9 6 0 11 31 11 69 1 39 8 82 17 99 11 23 12 33 3
42 -8 8 -6 9 8 4 13 -5 17 -4 12 4 -3 6 2 15 11 21 10 6 14 11 10 11 -4 0 4
11 18 25 14 14 25 31 25 37 0 6 3 9 6 5 9 -9 64 45 57 56 -3 6 -1 7 5 4 14 -9
43 3 36 14 -3 5 2 6 10 3 9 -3 16 -1 16 5 0 6 6 10 13 8 6 -1 11 3 10 10 -2 7
4 10 12 6 9 -3 25 3 37 13 12 11 18 13 14 7 -4 -7 -2 -13 3 -13 6 0 11 4 11 8
0 4 12 7 28 7 15 -1 36 6 46 14 11 9 17 11 13 5 -4 -7 2 -9 18 -6 15 2 22 9
18 16 -3 6 3 3 14 -7 25 -22 39 -8 23 22 -5 11 -7 28 -4 38 6 17 6 17 -11 1
-16 -15 -17 -19 -4 -35 13 -16 12 -17 -3 -5 -11 9 -18 10 -23 2 -3 -5 -12 -10
-18 -9 -9 0 -9 2 0 6 9 3 10 10 3 23 -7 13 -7 21 0 25 8 5 8 11 1 19 -9 10 -3
12 24 11 19 -2 33 1 30 4 -2 4 2 8 10 8 8 0 11 -5 8 -11 -4 -6 4 -2 17 9 13
11 20 14 16 8 -4 -7 -2 -13 3 -13 6 0 11 6 11 14 0 14 -71 18 -92 5z m17 -9
c-3 -5 -12 -10 -18 -10 -7 0 -6 4 3 10 19 12 23 12 15 0z m-65 -25 c0 4 5 3
11 -1 8 -4 8 -9 0 -17 -13 -13 -63 -18 -55 -5 3 4 0 8 -5 8 -6 0 -11 -5 -11
-11 0 -5 -5 -7 -12 -3 -9 6 -9 9 0 12 7 2 9 9 6 14 -4 6 -2 8 4 4 6 -3 13 -2
17 4 4 7 12 7 26 0 10 -6 19 -8 19 -5z m-452 -93 c8 -7 19 -9 25 -5 8 5 8 2 0
-9 -7 -8 -9 -19 -5 -23 4 -5 1 -5 -6 -1 -7 4 -10 12 -7 17 4 5 0 10 -7 11 -7
0 -17 2 -23 3 -5 2 -14 3 -18 4 -5 0 -5 5 -2 11 7 12 25 9 43 -8z m222 -32 c0
-5 -4 -10 -10 -10 -5 0 -10 5 -10 10 0 6 5 10 10 10 6 0 10 -4 10 -10z m-353
-15 c0 -8 -6 -16 -14 -19 -11 -4 -11 -1 -3 14 13 24 17 25 17 5z m1138 -15
c-5 -24 16 -42 35 -30 20 13 30 12 30 -1 0 -5 -5 -7 -12 -3 -7 4 -8 3 -4 -5 4
-6 3 -17 -3 -24 -12 -15 3 -46 16 -33 4 5 2 11 -5 13 -6 3 -10 9 -7 13 9 14
34 0 28 -16 -3 -8 1 -14 10 -14 10 0 15 -8 14 -20 -1 -11 -5 -20 -10 -20 -5 0
-6 7 -3 16 3 8 2 13 -3 9 -5 -3 -12 1 -15 7 -3 7 -3 2 0 -12 6 -24 6 -24 -9
-5 -16 20 -16 20 -14 -2 0 -12 4 -20 8 -17 4 2 18 -6 32 -18 l25 -22 -23 -18
c-26 -20 -45 -23 -45 -7 0 5 4 8 9 5 5 -3 14 1 21 9 9 10 9 15 1 15 -6 0 -11
-5 -11 -12 0 -6 -3 -8 -7 -5 -3 4 -12 2 -20 -5 -11 -9 -12 -7 -7 6 4 10 16 22
28 26 20 8 20 9 1 9 -11 1 -26 -8 -33 -19 -16 -26 -29 -25 -37 1 -6 17 -9 19
-16 8 -5 -8 -9 -9 -9 -3 0 5 5 15 12 22 15 15 3 16 -21 1 -13 -9 -22 -9 -37 0
-17 11 -17 11 4 6 13 -4 29 -1 37 5 8 6 18 9 23 6 12 -7 12 26 -1 42 -7 9 -4
18 8 32 17 19 17 21 0 40 -10 11 -22 17 -27 14 -6 -4 -5 3 1 14 13 25 41 19
36 -8z m-807 -1 c3 -11 2 -11 -7 1 -10 13 -12 13 -20 0 -5 -8 -8 -17 -5 -21 5
-9 -23 -5 -32 4 -12 12 -26 8 -17 -5 10 -17 14 -42 5 -33 -4 4 -8 11 -8 16 -3
22 -5 23 -12 12 -6 -9 -11 -7 -20 7 -7 12 -8 20 -2 20 5 0 10 -5 10 -11 0 -8
5 -8 15 1 12 10 18 10 29 1 12 -10 17 -8 26 9 12 23 31 23 38 -1z m307 11 c3
-5 1 -10 -4 -10 -6 0 -11 5 -11 10 0 6 2 10 4 10 3 0 8 -4 11 -10z m-445 -10
c0 -5 -2 -10 -4 -10 -3 0 -8 5 -11 10 -3 6 -1 10 4 10 6 0 11 -4 11 -10z m687
-7 c-3 -2 -17 -6 -33 -9 -27 -5 -28 -4 -9 9 16 13 54 13 42 0z m73 -3 c8 -5
11 -10 6 -10 -5 0 -3 -7 4 -15 9 -11 16 -12 25 -5 8 7 16 7 19 2 3 -6 -1 -15
-8 -21 -11 -9 -19 -7 -38 11 -23 23 -59 30 -74 16 -4 -5 -12 -8 -18 -8 -5 0
-1 6 9 14 11 8 23 12 27 10 4 -2 9 0 13 6 8 12 16 12 35 0z m-744 -27 c20 -27
16 -35 -6 -13 -11 11 -20 22 -20 25 0 11 13 4 26 -12z m-226 -10 c0 19 2 20
24 11 20 -8 21 -20 1 -22 -8 -1 -22 -3 -30 -4 -10 -1 -14 -7 -10 -16 3 -8 0
-21 -6 -28 -8 -10 -8 -14 0 -14 6 0 11 -4 11 -10 0 -5 -6 -9 -12 -7 -7 1 -12
-4 -10 -10 1 -7 -2 -13 -8 -13 -6 0 -9 -3 -9 -7 3 -21 -2 -32 -13 -28 -8 3
-14 -4 -14 -20 -2 -26 11 -34 19 -12 4 9 6 9 6 0 2 -22 -22 -26 -36 -7 -8 10
-17 19 -21 19 -4 0 -8 5 -8 10 -1 6 -3 12 -4 15 -9 25 -5 39 12 43 11 3 17 10
14 16 -4 5 4 17 16 25 15 11 18 16 8 16 -11 1 -10 3 3 11 15 9 16 13 5 27 -10
14 -8 13 9 -1 22 -19 40 -9 28 16 -4 6 1 3 9 -7 14 -17 16 -18 16 -3z m326 -5
c3 -4 -1 -5 -10 -4 -8 1 -18 5 -22 8 -3 4 1 5 10 4 8 -1 18 -5 22 -8z m619 2
c3 -6 -1 -7 -9 -4 -18 7 -21 14 -7 14 6 0 13 -4 16 -10z m295 0 c0 -5 -4 -10
-10 -10 -5 0 -10 5 -10 10 0 6 5 10 10 10 6 0 10 -4 10 -10z m-811 -21 c-7 -4
-17 -5 -23 -2 -5 4 -7 -1 -2 -12 5 -15 4 -16 -9 -5 -14 11 -13 14 2 25 9 7 23
10 31 7 11 -4 11 -6 1 -13z m-383 -32 c17 6 19 -13 2 -23 -7 -5 -8 -2 -3 7 7
12 5 12 -6 1 -12 -11 -12 -14 1 -22 9 -6 20 -4 29 3 11 10 13 9 9 -3 -3 -8 -1
-23 4 -34 7 -12 7 -16 0 -12 -15 9 -22 -20 -9 -33 9 -9 8 -10 -7 -5 -13 5 -17
4 -12 -4 4 -7 2 -12 -5 -12 -8 0 -8 -4 1 -15 11 -13 10 -14 -4 -9 -20 8 -20 8
0 46 9 16 11 27 5 24 -6 -4 -11 -5 -11 -2 0 2 -3 12 -7 21 -5 15 -3 16 18 6
23 -11 23 -11 5 3 -11 9 -23 16 -27 16 -4 0 -6 19 -6 43 0 23 2 32 4 20 3 -14
9 -20 19 -16z m132 8 c-3 -3 -9 2 -12 12 -6 14 -5 15 5 6 7 -7 10 -15 7 -18z
m-108 3 c0 -8 3 -9 8 -3 12 17 42 17 42 0 0 -9 -4 -14 -9 -11 -5 3 -12 -1 -15
-10 -4 -9 -9 -14 -13 -11 -3 4 -13 1 -22 -6 -14 -11 -15 -10 -1 7 13 16 12 20
-5 32 -17 12 -17 14 -2 14 9 0 17 -6 17 -12z m944 4 c3 -5 -1 -9 -9 -9 -8 0
-12 4 -9 9 3 4 7 8 9 8 2 0 6 -4 9 -8z m-794 -22 c0 -5 -7 -7 -15 -4 -8 4 -15
8 -15 10 0 2 7 4 15 4 8 0 15 -4 15 -10z m920 0 c0 -5 -5 -10 -11 -10 -5 0 -7
5 -4 10 3 6 8 10 11 10 2 0 4 -4 4 -10z m-960 -10 c0 -5 -7 -7 -15 -4 -8 4
-15 8 -15 10 0 2 7 4 15 4 8 0 15 -4 15 -10z m184 -5 c-4 -8 -11 -12 -16 -9
-6 4 -5 10 3 15 19 12 19 11 13 -6z m711 5 c-3 -5 -12 -10 -18 -10 -7 0 -6 4
3 10 19 12 23 12 15 0z m-955 -9 c0 -5 -7 -12 -16 -15 -14 -5 -14 -9 -3 -24
13 -15 12 -16 -3 -4 -14 11 -15 17 -5 33 12 20 27 25 27 10z m35 -9 c-3 -3
-11 0 -18 7 -9 10 -8 11 6 5 10 -3 15 -9 12 -12z m25 -17 c-7 -9 -15 -13 -19
-10 -3 3 1 10 9 15 21 14 24 12 10 -5z m165 5 c3 -5 0 -7 -8 -4 -9 3 -22 -4
-31 -18 -9 -12 -16 -18 -16 -14 0 12 31 46 41 46 4 0 11 -4 14 -10z m-208 -20
c-3 -11 -1 -23 4 -26 5 -3 9 -10 9 -15 0 -6 -6 -4 -14 4 -13 13 -12 57 1 57 3
0 3 -9 0 -20z m-117 0 c0 -5 0 -13 -1 -16 0 -4 5 -10 11 -14 9 -6 9 -13 1 -29
-9 -17 -9 -26 2 -41 8 -11 17 -17 20 -13 4 3 7 2 7 -4 0 -13 -25 -24 -34 -15
-4 3 -13 7 -22 8 -11 2 -12 -1 -5 -10 6 -7 8 -15 5 -18 -3 -3 0 -9 7 -14 7 -4
10 -3 5 4 -3 6 -2 13 4 17 5 3 10 1 10 -5 0 -6 4 -9 8 -6 5 3 9 -1 9 -7 0 -19
-52 -15 -53 3 -2 27 -16 50 -27 43 -5 -3 -7 -2 -4 4 3 5 20 8 37 7 17 -1 28 1
25 4 -6 7 -10 8 -37 11 -7 1 -2 10 12 21 20 16 22 20 8 20 -13 0 -17 6 -14 23
3 12 5 25 5 30 1 11 21 8 21 -3z m676 -12 c4 -7 3 -8 -4 -4 -7 4 -12 2 -12 -5
0 -7 -3 -10 -6 -6 -6 5 3 27 11 27 2 0 7 -5 11 -12z m-723 -13 c-3 -9 -8 -14
-10 -11 -3 3 -2 9 2 15 9 16 15 13 8 -4z m158 -37 c11 -8 10 -9 -3 -4 -13 4
-18 0 -18 -16 0 -18 2 -19 18 -7 15 13 16 12 3 -3 -19 -25 -31 -13 -29 28 1
19 5 30 8 23 4 -6 14 -16 21 -21z m43 23 c3 -5 -2 -15 -12 -22 -15 -12 -16
-12 -5 2 7 9 10 19 6 22 -3 4 -4 7 0 7 3 0 8 -4 11 -9z m1130 -7 c3 -8 2 -12
-4 -9 -6 3 -10 10 -10 16 0 14 7 11 14 -7z m-119 -12 c-3 -3 -11 0 -18 7 -9
10 -8 11 6 5 10 -3 15 -9 12 -12z m-1205 -1 c0 -5 -8 -15 -17 -22 -16 -12 -17
-12 -6 2 7 9 10 19 6 22 -3 4 -1 7 5 7 7 0 12 -4 12 -9z m1177 -16 c0 -8 -4
-12 -9 -9 -5 3 -6 10 -3 15 9 13 12 11 12 -6z m174 -32 c13 -16 12 -17 -3 -4
-17 13 -22 21 -14 21 2 0 10 -8 17 -17z m-1071 -38 c0 -5 -5 -3 -10 5 -5 8
-10 20 -10 25 0 6 5 3 10 -5 5 -8 10 -19 10 -25z m252 16 c-5 -3 -9 -21 -7
-39 2 -26 0 -30 -11 -21 -8 6 -11 16 -7 23 4 6 8 16 9 21 0 6 2 16 2 23 1 7 7
10 13 6 7 -4 8 -9 1 -13z m672 11 c2 -4 -4 -8 -14 -8 -10 0 -16 4 -14 8 3 4 9
8 14 8 5 0 11 -4 14 -8z m-1070 -22 c-6 -6 -15 -5 -24 1 -13 9 -12 10 3 5 9
-3 17 0 17 6 0 6 3 8 7 5 4 -4 2 -12 -3 -17z m-138 -16 c-6 -15 29 -38 44 -29
5 3 11 1 15 -5 4 -6 11 -8 16 -5 5 4 9 1 9 -4 0 -6 -4 -11 -9 -11 -11 0 -9
-39 3 -58 4 -7 2 -19 -4 -27 -8 -10 -9 -15 -2 -15 6 0 16 8 21 18 6 9 11 12
11 6 0 -6 -6 -17 -14 -24 -12 -9 -13 -17 -4 -36 8 -18 14 -21 20 -12 6 10 8
10 9 1 1 -7 3 -17 4 -23 1 -5 3 -16 4 -22 1 -9 4 -9 12 2 8 12 9 11 7 -5 -2
-12 2 -19 10 -17 10 2 10 -2 3 -17 -6 -10 -7 -21 -4 -25 3 -3 1 -6 -5 -6 -16
0 -24 18 -10 22 6 2 8 10 4 17 -6 9 -11 8 -22 -6 -7 -10 -14 -13 -14 -8 0 6 5
16 12 23 9 9 9 12 1 12 -7 0 -14 -4 -18 -10 -8 -13 -32 -2 -32 15 0 8 4 12 9
9 15 -10 8 6 -12 26 -20 20 -19 47 1 35 5 -3 6 1 3 10 -5 12 -9 13 -20 4 -8
-7 -17 -9 -21 -5 -3 3 -1 6 6 6 7 0 9 5 5 12 -4 6 -3 8 4 4 6 -3 13 -2 17 4 6
9 -7 14 -27 11 -8 -1 -12 14 -9 38 2 8 -2 10 -11 5 -10 -6 -10 -5 0 9 12 14
11 21 -8 47 -12 16 -18 30 -14 30 3 0 1 7 -6 15 -11 13 -10 14 4 9 10 -4 15
-13 12 -20z m199 8 c-3 -3 -11 0 -18 7 -9 10 -8 11 6 5 10 -3 15 -9 12 -12z
m-75 -23 c0 -6 5 -7 12 -3 7 4 8 3 4 -4 -4 -6 -13 -9 -21 -6 -8 4 -12 11 -8
17 4 6 0 8 -9 5 -8 -4 -15 0 -15 7 0 10 5 11 19 4 10 -5 18 -14 18 -20z m40
11 c0 -5 -2 -10 -4 -10 -3 0 -8 5 -11 10 -3 6 -1 10 4 10 6 0 11 -4 11 -10z
m-200 -20 c0 -5 -7 -7 -15 -4 -8 4 -15 8 -15 10 0 2 7 4 15 4 8 0 15 -4 15
-10z m-12 -35 c-3 -3 -9 2 -12 12 -6 14 -5 15 5 6 7 -7 10 -15 7 -18z m1312 0
c7 -9 8 -15 2 -15 -5 0 -12 7 -16 15 -3 8 -4 15 -2 15 2 0 9 -7 16 -15z
m-1100 -11 c-6 -6 -6 -15 -2 -19 4 -5 2 -5 -5 -2 -6 4 -13 2 -15 -5 -6 -16
-35 -18 -35 -2 0 11 3 11 15 2 11 -9 13 -9 12 3 -4 29 0 38 19 36 14 -1 17 -5
11 -13z m-67 -14 c-3 -12 -8 -19 -11 -16 -5 6 5 36 12 36 2 0 2 -9 -1 -20z
m1161 -9 c-2 -3 -12 3 -22 13 -16 17 -16 18 5 5 12 -7 20 -15 17 -18z m-1304
9 c8 -5 11 -10 5 -10 -5 0 -17 5 -25 10 -8 5 -10 10 -5 10 6 0 17 -5 25 -10z
m344 2 c3 -5 -1 -9 -9 -9 -8 0 -12 4 -9 9 3 4 7 8 9 8 2 0 6 -4 9 -8z m-319
-22 c-3 -5 -12 -10 -18 -10 -7 0 -6 4 3 10 19 12 23 12 15 0z m220 -10 c10
-11 16 -20 13 -20 -3 0 -13 9 -23 20 -10 11 -16 20 -13 20 3 0 13 -9 23 -20z
m375 0 c-12 -23 -16 -24 -26 -8 -4 6 -3 8 3 5 6 -4 13 0 17 8 3 8 8 15 11 15
3 0 1 -9 -5 -20z m-392 -14 c-2 -1 -12 -8 -22 -16 -17 -13 -18 -13 -11 -1 6
11 4 13 -10 7 -18 -7 -18 -6 0 14 14 15 21 17 32 9 7 -7 12 -12 11 -13z m-218
0 c0 -3 -4 -8 -10 -11 -5 -3 -10 -1 -10 4 0 6 5 11 10 11 6 0 10 -2 10 -4z
m20 -16 c0 -5 -5 -10 -11 -10 -5 0 -7 5 -4 10 3 6 8 10 11 10 2 0 4 -4 4 -10z
m35 0 c3 -5 1 -10 -4 -10 -6 0 -11 5 -11 10 0 6 2 10 4 10 3 0 8 -4 11 -10z
m1202 -5 c0 -8 -4 -12 -9 -9 -5 3 -6 10 -3 15 9 13 12 11 12 -6z m113 -10 c-7
-9 -19 -14 -26 -11 -7 3 -16 1 -19 -4 -4 -6 -14 -10 -23 -9 -12 0 -9 4 8 11
14 6 28 12 32 12 3 1 10 4 14 9 14 14 26 7 14 -8z m-1210 -6 c0 -5 -4 -7 -10
-4 -5 3 -10 1 -10 -6 0 -7 -3 -10 -6 -6 -8 7 4 27 17 27 5 0 9 -5 9 -11z m364
3 c3 -5 -1 -9 -9 -9 -8 0 -12 4 -9 9 3 4 7 8 9 8 2 0 6 -4 9 -8z m544 -32 c-7
-10 -14 -17 -17 -15 -4 4 18 35 25 35 2 0 -1 -9 -8 -20z m-518 -5 c0 -12 -19
-12 -23 0 -4 9 -1 12 9 8 7 -3 14 -7 14 -8z m805 5 c7 -12 -42 -33 -56 -24 -5
3 -9 11 -8 17 0 9 2 9 6 0 2 -7 9 -13 14 -13 6 0 8 4 5 9 -4 5 0 12 6 14 20 8
26 8 33 -3z m-1145 -14 c0 -2 -7 -7 -16 -10 -8 -3 -12 -2 -9 4 6 10 25 14 25
6z m-133 -21 c0 -8 -4 -12 -9 -9 -5 3 -6 10 -3 15 9 13 12 11 12 -6z m1203 6
c0 -6 -4 -12 -8 -15 -5 -3 -9 1 -9 9 0 8 4 15 9 15 4 0 8 -4 8 -9z m-236 -16
c-4 -8 -11 -15 -16 -15 -6 0 -5 6 2 15 7 8 14 15 16 15 2 0 1 -7 -2 -15z
m-1004 -7 c0 -4 -7 -8 -15 -8 -8 0 -15 4 -15 8 0 5 7 9 15 9 8 0 15 -4 15 -9z
m170 2 c0 -5 -2 -10 -4 -10 -3 0 -8 5 -11 10 -3 6 -1 10 4 10 6 0 11 -4 11
-10z m241 -7 c13 -16 12 -17 -3 -4 -10 7 -18 15 -18 17 0 8 8 3 21 -13z m790
-10 c13 -16 12 -17 -3 -4 -17 13 -22 21 -14 21 2 0 10 -8 17 -17z m-1190 -16
c-10 -9 -11 -8 -5 6 3 10 9 15 12 12 3 -3 0 -11 -7 -18z m189 -9 c0 -19 -16
-5 -17 14 -2 18 0 20 7 8 5 -8 10 -18 10 -22z m-270 1 c0 -6 -4 -7 -10 -4 -5
3 -10 11 -10 16 0 6 5 7 10 4 6 -3 10 -11 10 -16z m1265 -7 c-3 -3 -11 0 -18
7 -9 10 -8 11 6 5 10 -3 15 -9 12 -12z m-1196 -14 c-3 -26 1 -39 12 -33 6 4 5
-2 -2 -13 -10 -16 -16 -18 -26 -10 -10 8 -10 14 -3 23 8 9 8 15 0 20 -6 3 -8
11 -5 16 9 13 26 11 24 -3z m231 -81 c-10 -10 -12 -9 -7 5 3 10 2 20 -3 23 -6
4 -10 -2 -11 -12 -1 -13 -3 -11 -8 6 -3 13 -15 25 -25 27 -21 3 -35 14 -18 14
6 0 9 7 5 17 -4 9 13 -3 37 -26 35 -34 41 -44 30 -54z m-15 83 c-3 -5 -1 -10
5 -10 6 0 8 -5 4 -11 -4 -8 -9 -7 -15 2 -7 12 -3 29 7 29 3 0 2 -4 -1 -10z
m-172 -14 c4 -10 0 -12 -15 -8 -15 4 -17 7 -6 13 17 11 15 11 21 -5z m220 -10
c4 -10 1 -13 -9 -9 -15 6 -19 23 -5 23 5 0 11 -7 14 -14z m900 -1 c-3 -9 -8
-14 -10 -11 -3 3 -2 9 2 15 9 16 15 13 8 -4z m-1108 -25 c-3 -5 -14 -10 -23
-10 -15 0 -15 -2 -2 -10 9 -6 10 -10 3 -10 -23 0 -24 20 -1 29 30 13 30 13 23
1z m203 -15 c-3 -3 -9 2 -12 12 -6 14 -5 15 5 6 7 -7 10 -15 7 -18z m652 5 c0
-5 -2 -10 -4 -10 -3 0 -8 5 -11 10 -3 6 -1 10 4 10 6 0 11 -4 11 -10z m-610
-36 c0 -8 -4 -14 -10 -14 -5 0 -7 7 -4 15 5 11 2 13 -10 9 -9 -3 -14 -9 -11
-13 2 -4 -2 -8 -10 -8 -22 0 -18 13 8 24 25 12 37 8 37 -13z m650 16 c-8 -5
-19 -10 -25 -10 -5 0 -3 5 5 10 8 5 20 10 25 10 6 0 3 -5 -5 -10z m-879 -30
c6 0 7 4 4 10 -4 6 1 7 11 3 15 -5 15 -7 0 -15 -29 -16 -54 -17 -66 -2 -10 11
-8 16 11 23 18 6 25 5 27 -5 2 -8 8 -14 13 -14z m306 8 c2 -17 0 -19 -7 -8 -5
8 -6 18 -4 22 8 12 10 10 11 -14z m-41 -29 c12 -13 12 -16 0 -16 -8 0 -14 5
-13 11 1 6 -7 10 -18 9 -11 -1 -14 0 -7 3 6 3 12 13 13 22 0 14 2 14 6 2 3 -8
12 -22 19 -31z m24 10 c0 -6 -4 -7 -10 -4 -5 3 -10 11 -10 16 0 6 5 7 10 4 6
-3 10 -11 10 -16z m444 -1 c-3 -4 -9 -8 -15 -8 -5 0 -9 4 -9 8 0 5 7 9 15 9 8
0 12 -4 9 -9z m96 8 c0 -3 -4 -8 -10 -11 -5 -3 -10 -1 -10 4 0 6 5 11 10 11 6
0 10 -2 10 -4z m-426 -17 c9 13 55 7 70 -10 8 -9 8 -10 -1 -5 -21 12 -55 16
-67 8 -20 -12 -35 -10 -29 5 4 11 8 11 13 3 5 -9 9 -9 14 -1z m598 -3 c7 4 8
2 4 -4 -11 -18 -26 -14 -25 6 0 10 3 12 6 4 2 -6 10 -9 15 -6z m-683 -18 c-12
-23 -21 -24 -12 -1 5 12 3 14 -7 8 -8 -5 -11 -4 -7 2 3 5 13 10 21 10 11 0 13
-5 5 -19z m178 0 c-3 -8 -6 -5 -6 6 -1 11 2 17 5 13 3 -3 4 -12 1 -19z m68 12
c3 -5 1 -10 -4 -10 -6 0 -11 5 -11 10 0 6 2 10 4 10 3 0 8 -4 11 -10z m-210
-36 c9 -15 12 -23 6 -20 -11 7 -35 46 -28 46 3 0 12 -12 22 -26z m255 22 c0
-2 -7 -7 -16 -10 -8 -3 -12 -2 -9 4 6 10 25 14 25 6z m350 -21 c-7 -8 -16 -15
-21 -15 -5 0 -1 8 9 18 20 22 31 19 12 -3z m-823 -17 c-3 -8 -6 -5 -6 6 -1 11
2 17 5 13 3 -3 4 -12 1 -19z m328 12 c3 -6 -1 -7 -9 -4 -18 7 -21 14 -7 14 6
0 13 -4 16 -10z m81 -2 c3 -4 -1 -5 -10 -4 -8 1 -18 5 -22 8 -3 4 1 5 10 4 8
-1 18 -5 22 -8z m341 -3 c0 -8 -4 -12 -9 -9 -5 3 -6 10 -3 15 9 13 12 11 12
-6z m48 -24 c-6 -5 -25 10 -25 20 0 5 6 4 14 -3 8 -7 12 -15 11 -17z m-485 13
c0 -8 -19 -13 -24 -6 -3 5 1 9 9 9 8 0 15 -2 15 -3z m60 -4 c0 -5 -2 -10 -4
-10 -3 0 -8 5 -11 10 -3 6 -1 10 4 10 6 0 11 -4 11 -10z m475 -10 c23 -9 25
-13 15 -25 -13 -16 -35 -21 -25 -6 3 5 -2 17 -11 25 -18 19 -15 20 21 6z
m-760 -20 c3 -6 -1 -7 -9 -4 -18 7 -21 14 -7 14 6 0 13 -4 16 -10z m565 -10
c0 -5 -5 -10 -11 -10 -5 0 -7 5 -4 10 3 6 8 10 11 10 2 0 4 -4 4 -10z m23 -7
c-4 -11 -3 -14 5 -9 8 5 10 1 5 -10 -4 -12 -3 -15 5 -10 7 4 12 5 12 2 0 -3
-4 -7 -9 -11 -12 -7 -34 32 -26 45 10 16 15 11 8 -7z m52 5 c4 -3 2 -9 -3 -12
-5 -3 -15 1 -21 8 -10 11 -9 14 3 12 9 -1 18 -5 21 -8z m-122 -20 c-5 -19 -3
-21 8 -10 7 6 17 12 23 12 5 0 1 -6 -10 -14 -22 -17 -40 -6 -31 18 9 24 16 19
10 -6z m-453 2 c0 -5 -2 -10 -4 -10 -3 0 -8 5 -11 10 -3 6 -1 10 4 10 6 0 11
-4 11 -10z m436 -55 c-3 -8 -1 -17 4 -20 6 -4 10 -2 10 3 0 16 44 22 58 8 20
-19 -9 -41 -36 -27 -15 8 -23 7 -31 -3 -6 -7 -9 -15 -6 -18 3 -2 -11 -4 -30
-3 -18 0 -37 4 -41 8 -16 16 -26 6 -11 -11 15 -16 15 -19 2 -19 -8 0 -13 3
-10 5 3 3 0 12 -7 19 -9 11 -9 16 2 23 9 6 19 3 28 -8 13 -16 13 -16 8 0 -3
10 0 20 6 24 7 5 8 2 3 -6 -5 -8 -3 -11 6 -8 8 3 14 11 14 19 1 8 7 13 14 11
10 -2 12 5 7 25 -5 23 -4 25 5 10 6 -10 8 -25 5 -32z m-103 7 c-2 -6 6 -10 17
-9 11 1 20 7 20 14 0 6 9 11 19 10 11 0 17 -5 15 -9 -3 -5 -9 -6 -14 -3 -4 3
-10 -1 -13 -9 -7 -17 -53 -15 -49 3 2 9 -4 12 -17 8 -11 -3 -22 1 -25 8 -3 10
2 11 22 5 15 -4 26 -12 25 -18z m157 14 c0 -2 -7 -7 -16 -10 -8 -3 -12 -2 -9
4 6 10 25 14 25 6z m127 -10 c0 -15 -21 -16 -34 -1 -4 4 -3 5 4 1 6 -3 14 -2
18 4 8 14 12 13 12 -4z m-60 -21 c0 -8 -4 -12 -9 -9 -5 3 -6 10 -3 15 9 13 12
11 12 -6z m-242 -6 c11 -16 1 -19 -13 -3 -7 8 -8 14 -3 14 5 0 13 -5 16 -11z
m-12 -25 c27 -25 29 -56 2 -34 -8 7 -15 7 -19 1 -3 -5 -14 -8 -24 -6 -9 1 -23
-2 -29 -8 -9 -6 -13 -6 -14 2 -1 6 -2 17 -3 24 -2 13 33 46 49 47 6 0 23 -12
38 -26z"/>
<path d="M1032 1701 c5 -16 35 -24 43 -11 3 5 -3 7 -12 6 -10 -2 -22 2 -26 8
-6 7 -7 6 -5 -3z"/>
<path d="M1650 1499 c0 -5 -4 -8 -9 -4 -6 3 -15 -5 -22 -17 -11 -21 -11 -22 5
-9 14 12 16 12 10 -4 -5 -13 -4 -16 4 -11 7 4 12 1 12 -9 0 -9 5 -13 10 -10 7
4 7 12 0 25 -5 10 -7 26 -4 34 3 9 3 16 0 16 -3 0 -6 -5 -6 -11z"/>
<path d="M1631 1424 c0 -11 3 -14 6 -6 3 7 2 16 -1 19 -3 4 -6 -2 -5 -13z"/>
<path d="M1621 1379 c9 -17 13 -19 20 -8 5 8 3 16 -4 21 -22 14 -28 8 -16 -13z"/>
<path d="M419 1475 c-1 -3 -2 -9 -3 -15 0 -5 -10 -16 -21 -25 -14 -10 -15 -13
-4 -9 10 3 20 0 25 -7 4 -7 3 -10 -3 -6 -16 10 -67 -33 -54 -46 5 -5 7 -17 4
-26 -4 -13 -3 -13 5 -2 5 7 12 9 14 5 3 -5 3 -3 2 4 -2 7 6 17 19 22 12 5 18
9 14 9 -4 1 -2 11 5 24 7 12 12 25 13 29 0 3 3 10 8 14 4 4 7 11 7 15 0 8 -29
21 -31 14z m12 -29 c-6 -7 -7 -17 -3 -21 4 -5 1 -5 -6 -1 -9 6 -10 11 -3 20 6
7 7 17 3 21 -4 5 -1 5 6 1 9 -6 10 -11 3 -20z m-36 -66 c-17 -19 -41 -18 -29
1 3 5 10 7 15 4 5 -4 9 -1 9 4 0 6 5 11 12 11 6 0 3 -8 -7 -20z"/>
<path d="M470 1346 c0 -2 7 -7 16 -10 8 -3 12 -2 9 4 -6 10 -25 14 -25 6z"/>
<path d="M474 1174 c11 -8 13 -14 6 -19 -14 -9 -2 -27 13 -19 7 3 3 -2 -7 -10
-17 -14 -14 -18 10 -15 4 0 11 -5 15 -13 6 -9 9 -9 9 -1 0 6 -4 14 -10 18 -5
3 -7 12 -3 20 3 8 0 15 -7 15 -10 0 -10 3 0 15 7 8 11 15 9 16 -2 0 -15 2 -28
3 -21 3 -22 2 -7 -10z"/>
<path d="M506 1025 c3 -7 12 -16 20 -19 11 -4 13 -13 9 -28 -6 -19 -5 -21 6
-11 15 15 22 46 8 37 -5 -3 -12 1 -15 10 -3 8 -12 17 -19 20 -9 3 -12 0 -9 -9z"/>
<path d="M474 812 c4 -3 14 -7 22 -8 9 -1 13 0 10 4 -4 3 -14 7 -22 8 -9 1
-13 0 -10 -4z"/>
<path d="M1223 595 c4 -4 0 -16 -8 -25 -13 -14 -13 -17 0 -17 8 0 12 4 9 8 -2
4 3 9 12 11 15 3 15 5 -2 18 -10 8 -16 10 -11 5z"/>
<path d="M1305 590 c5 -9 1 -10 -16 -6 -21 6 -22 6 -6 -5 13 -7 22 -8 29 -1 6
6 6 12 -3 17 -8 6 -10 4 -4 -5z"/>
<path d="M1054 565 c-4 -8 -9 -13 -13 -10 -4 2 -8 -3 -8 -11 0 -10 4 -11 11
-4 12 12 29 13 22 1 -7 -10 20 -9 30 2 4 4 14 1 23 -5 9 -7 5 0 -8 15 -27 30
-49 35 -57 12z m37 -8 c-1 -12 -15 -9 -19 4 -3 6 1 10 8 8 6 -3 11 -8 11 -12z"/>
<path d="M1223 1728 c-1 -10 3 -18 8 -18 6 0 7 -4 4 -10 -4 -6 -15 -4 -29 5
-22 15 -36 12 -36 -7 0 -5 10 -7 23 -3 20 6 21 5 3 -6 -16 -10 -22 -9 -32 5
-11 15 -12 13 -10 -16 4 -54 22 -79 49 -69 12 5 29 7 37 6 8 -2 30 -5 47 -8
18 -3 36 0 39 5 5 7 2 8 -7 3 -12 -8 -12 -6 0 8 8 10 11 20 7 24 -3 4 -12 -2
-19 -12 -13 -17 -14 -17 -20 -1 -4 10 -11 14 -17 11 -6 -4 -8 -11 -4 -16 3 -6
-3 -5 -15 3 -12 7 -21 16 -21 20 0 6 -13 5 -49 -4 -7 -1 -15 3 -16 10 -2 7 -1
8 1 3 3 -5 15 0 26 11 18 18 22 19 32 6 6 -8 19 -14 28 -12 10 1 20 -2 24 -7
3 -5 10 -6 16 -3 7 5 8 2 3 -7 -5 -8 -4 -11 1 -6 5 5 10 13 10 18 1 5 2 14 3
20 0 5 6 7 11 4 6 -4 8 -10 5 -15 -3 -5 0 -12 6 -15 5 -4 8 -13 5 -21 -6 -14
6 -19 17 -7 4 3 0 15 -10 25 -21 23 -8 23 22 0 l23 -18 -29 -13 c-34 -15 -36
-22 -9 -38 16 -11 21 -10 30 7 8 15 8 20 -2 20 -7 0 -5 5 5 11 14 8 23 7 36
-5 10 -9 22 -16 27 -16 5 0 3 4 -5 9 -9 6 -10 11 -2 15 6 4 11 2 11 -3 0 -6 3
-10 8 -8 4 1 7 -3 7 -8 0 -5 -4 -9 -9 -7 -5 2 -6 -5 -2 -14 5 -14 4 -15 -9 -4
-9 7 -18 10 -21 7 -3 -3 4 -11 17 -17 19 -11 25 -10 36 6 7 10 11 24 9 31 -3
7 5 18 17 24 20 11 21 11 8 -4 -7 -10 -10 -17 -6 -17 4 0 2 -7 -6 -16 -10 -13
-10 -17 2 -24 8 -6 18 -5 24 1 6 6 5 13 -5 19 -8 5 -13 10 -10 11 67 12 70 14
45 37 -18 16 -18 16 -6 0 9 -11 9 -18 3 -18 -6 0 -15 8 -21 17 -5 10 -13 15
-17 11 -4 -5 -13 -3 -21 4 -11 9 -12 7 -6 -8 6 -17 5 -17 -10 -5 -14 11 -20
11 -32 1 -9 -8 -15 -9 -15 -2 0 6 5 14 10 17 6 3 10 12 10 18 0 8 -3 8 -8 2
-17 -24 -57 0 -47 28 4 9 13 13 21 10 12 -4 12 -8 2 -22 -8 -11 -5 -10 10 3
12 11 22 15 22 10 0 -5 11 -11 25 -12 14 -1 25 2 25 6 0 4 -8 8 -17 9 -10 0
-29 4 -43 8 -45 11 -96 15 -80 5 8 -5 17 -7 20 -5 4 2 6 -11 6 -30 -1 -38 -18
-43 -21 -7 -1 12 -5 25 -10 29 -4 5 -4 -3 0 -15 7 -23 7 -23 -19 -7 -14 10
-26 14 -26 10 0 -5 -9 0 -20 10 -11 10 -20 23 -20 28 0 6 10 2 22 -9 12 -10
18 -13 14 -6 -7 11 5 17 27 13 5 -1 6 3 2 9 -4 7 -12 7 -25 0 -13 -7 -21 -7
-25 0 -5 8 -11 7 -22 -1 -12 -11 -12 -14 2 -21 8 -5 12 -14 9 -20 -5 -7 -2 -8
6 -3 8 5 11 3 8 -5 -2 -7 -12 -14 -21 -16 -13 -2 -16 3 -12 16 3 11 0 20 -11
24 -12 5 -14 10 -5 19 8 10 7 14 -2 14 -7 0 -14 -9 -14 -19z m198 -73 c3 2 5
-5 5 -16 0 -18 -2 -18 -12 -5 -6 9 -13 14 -16 11 -2 -3 -5 2 -5 10 0 10 4 12
12 5 7 -5 14 -8 16 -5z m-204 -21 c-3 -3 -12 -4 -19 -1 -8 3 -5 6 6 6 11 1 17
-2 13 -5z m258 -4 c3 -6 -1 -7 -9 -4 -18 7 -21 14 -7 14 6 0 13 -4 16 -10z
m59 -8 c3 -5 -1 -9 -9 -9 -8 0 -12 4 -9 9 3 4 7 8 9 8 2 0 6 -4 9 -8z m-164
-32 c0 -5 -2 -10 -4 -10 -3 0 -8 5 -11 10 -3 6 -1 10 4 10 6 0 11 -4 11 -10z"/>
<path d="M633 1700 c-1 -11 2 -20 5 -20 4 0 8 9 9 20 1 11 -2 20 -5 20 -4 0
-8 -9 -9 -20z"/>
<path d="M664 1688 c3 -21 -1 -32 -17 -43 -21 -14 -21 -15 -2 -16 11 -1 26 -1
32 0 7 1 10 -5 7 -13 -7 -18 12 -31 22 -15 4 8 3 9 -5 5 -8 -5 -10 1 -7 21 4
18 -1 39 -15 58 l-20 30 5 -27z m26 -42 c0 -2 -7 -7 -16 -10 -8 -3 -12 -2 -9
4 6 10 25 14 25 6z"/>
<path d="M903 1697 c8 -21 -2 -28 -24 -16 -15 8 -17 6 -12 -7 4 -12 3 -15 -5
-10 -7 4 -12 3 -12 -3 0 -13 -24 -8 -46 9 -17 14 -17 14 -2 -9 9 -13 15 -28
14 -35 -2 -6 -1 -8 1 -3 3 4 12 7 21 7 15 0 15 -2 2 -11 -13 -9 -13 -10 0 -8
29 3 41 -1 35 -11 -3 -5 -2 -10 4 -10 15 0 9 39 -7 45 -8 3 -10 0 -6 -7 4 -7
3 -8 -4 -4 -18 11 -14 29 4 22 10 -4 13 -2 8 6 -5 7 -3 8 6 3 9 -6 11 -4 5 6
-7 11 -6 12 7 2 8 -7 19 -9 23 -5 5 4 5 1 0 -7 -6 -10 -4 -12 5 -6 9 5 11 4 6
-4 -6 -9 -11 -9 -21 -1 -11 9 -14 7 -12 -9 1 -22 12 -27 22 -11 3 5 13 7 23 4
14 -5 15 -4 2 5 -8 6 -11 11 -6 11 5 0 3 6 -3 14 -8 10 -8 15 -1 18 6 2 1 12
-11 22 -17 14 -21 15 -16 3z"/>
<path d="M1106 1699 c2 -4 0 -10 -5 -14 -6 -3 -8 -12 -4 -20 4 -12 9 -10 24 9
24 30 24 32 0 32 -11 0 -18 -4 -15 -7z"/>
<path d="M555 1690 c-3 -5 -1 -10 4 -10 6 0 11 5 11 10 0 6 -2 10 -4 10 -3 0
-8 -4 -11 -10z"/>
<path d="M830 1679 c0 -5 5 -7 10 -4 6 3 10 8 10 11 0 2 -4 4 -10 4 -5 0 -10
-5 -10 -11z"/>
<path d="M1513 1675 c0 -8 4 -12 9 -9 4 3 8 9 8 15 0 5 -4 9 -8 9 -5 0 -9 -7
-9 -15z"/>
<path d="M1544 1678 c-4 -7 -4 -10 1 -6 4 4 16 -3 27 -15 l19 -22 -17 28 c-19
31 -20 32 -30 15z"/>
<path d="M520 1660 c-8 -5 -10 -10 -5 -10 6 0 17 5 25 10 8 5 11 10 5 10 -5 0
-17 -5 -25 -10z"/>
<path d="M1246 1648 c3 -5 10 -6 15 -3 13 9 11 12 -6 12 -8 0 -12 -4 -9 -9z"/>
<path d="M754 1625 c-9 -14 -21 -22 -27 -18 -5 3 -7 1 -3 -5 3 -5 0 -12 -6
-15 -7 -2 -10 -8 -5 -12 4 -5 14 0 23 11 8 10 13 14 10 7 -4 -6 -2 -14 4 -18
5 -3 10 -1 10 5 0 6 6 8 13 5 6 -4 3 1 -8 10 -20 17 -20 17 2 11 16 -5 25 -2
32 13 7 13 8 22 1 26 -5 3 -10 -3 -10 -14 0 -14 -5 -19 -15 -15 -12 5 -13 10
-4 20 6 8 9 14 5 14 -3 0 -13 -11 -22 -25z"/>
<path d="M1633 1635 c0 -8 4 -12 9 -9 4 3 8 9 8 15 0 5 -4 9 -8 9 -5 0 -9 -7
-9 -15z"/>
<path d="M1656 1622 c-3 -5 1 -9 9 -9 8 0 12 4 9 9 -3 4 -7 8 -9 8 -2 0 -6 -4
-9 -8z"/>
<path d="M1695 1589 c-1 -31 7 -30 12 1 1 10 -1 21 -5 24 -4 2 -7 -9 -7 -25z"/>
<path d="M1620 1596 c0 -2 7 -7 16 -10 8 -3 12 -2 9 4 -6 10 -25 14 -25 6z"/>
<path d="M1210 1579 c0 -4 9 -6 20 -4 11 2 22 -1 25 -6 8 -12 25 -2 25 14 0 7
-4 6 -10 -3 -5 -8 -10 -10 -10 -4 0 6 -11 12 -25 12 -14 0 -25 -4 -25 -9z"/>
<path d="M1755 1571 c-3 -5 -2 -12 3 -15 5 -3 9 1 9 9 0 17 -3 19 -12 6z"/>
<path d="M506 1551 c-17 -19 -17 -19 0 -17 9 2 18 10 20 19 3 21 1 21 -20 -2z"/>
<path d="M1510 1534 c0 -8 5 -12 10 -9 6 3 10 10 10 16 0 5 -4 9 -10 9 -5 0
-10 -7 -10 -16z"/>
<path d="M1707 1539 c7 -7 15 -10 18 -7 3 3 -2 9 -12 12 -14 6 -15 5 -6 -5z"/>
<path d="M1775 1540 c-4 -6 -3 -9 2 -8 4 1 18 -3 31 -10 30 -17 28 -8 -2 12
-16 10 -27 12 -31 6z"/>
<path d="M1738 1508 c-5 -12 30 -47 36 -36 1 2 8 12 16 23 14 20 14 20 -7 1
-22 -19 -23 -18 -31 4 -7 18 -10 20 -14 8z"/>
<path d="M1799 1478 c-1 -2 -3 -16 -5 -33 -2 -16 -8 -31 -14 -33 -5 -2 -10 -8
-10 -13 0 -5 8 -4 18 2 12 8 18 23 18 45 -1 30 -3 40 -7 32z"/>
<path d="M1850 1476 c0 -2 8 -10 18 -17 15 -13 16 -12 3 4 -13 16 -21 21 -21
13z"/>
<path d="M1890 1440 c0 -5 5 -10 11 -10 5 0 7 5 4 10 -3 6 -8 10 -11 10 -2 0
-4 -4 -4 -10z"/>
<path d="M320 1420 c-8 -5 -10 -10 -5 -10 6 0 17 5 25 10 8 5 11 10 5 10 -5 0
-17 -5 -25 -10z"/>
<path d="M1820 1420 c0 -5 5 -10 11 -10 5 0 7 5 4 10 -3 6 -8 10 -11 10 -2 0
-4 -4 -4 -10z"/>
<path d="M1811 1384 c0 -11 3 -14 6 -6 3 7 2 16 -1 19 -3 4 -6 -2 -5 -13z"/>
<path d="M1830 1370 c0 -5 5 -10 10 -10 6 0 10 5 10 10 0 6 -4 10 -10 10 -5 0
-10 -4 -10 -10z"/>
<path d="M1110 1351 c0 -7 -4 -9 -10 -6 -5 3 -10 1 -10 -4 0 -6 4 -11 9 -11
13 0 25 20 17 27 -3 4 -6 1 -6 -6z"/>
<path d="M1860 1325 c-7 -8 -9 -15 -6 -15 4 0 14 7 22 15 9 8 11 15 6 15 -5 0
-15 -7 -22 -15z"/>
<path d="M1032 1318 c-7 -7 -12 -16 -12 -21 0 -5 7 -1 16 8 9 9 14 18 12 20
-2 3 -10 -1 -16 -7z"/>
<path d="M1711 1311 c-7 -12 -7 -22 -2 -25 10 -7 9 -31 -2 -42 -12 -13 -7 -26
7 -21 9 4 17 -2 21 -14 4 -10 11 -17 16 -13 6 3 17 0 25 -7 12 -10 13 -9 8 5
-3 9 -15 16 -26 16 -10 0 -16 5 -13 10 3 6 1 10 -5 10 -6 0 -8 5 -5 10 4 6 11
7 17 4 6 -4 3 5 -8 19 -10 15 -22 27 -26 27 -11 0 2 30 13 30 5 0 8 -5 7 -11
-2 -6 4 -14 12 -16 12 -4 12 -3 2 5 -8 5 -13 13 -12 18 3 18 -19 14 -29 -5z
m23 -50 c3 -5 -2 -15 -12 -22 -15 -12 -16 -12 -5 2 7 9 10 19 6 22 -3 4 -4 7
0 7 3 0 8 -4 11 -9z"/>
<path d="M1138 1308 c-7 -16 18 -35 30 -23 3 3 0 5 -6 5 -6 0 -12 8 -14 18 -3
15 -4 16 -10 0z"/>
<path d="M1830 1311 c0 -10 19 -25 25 -20 1 2 -3 10 -11 17 -8 7 -14 8 -14 3z"/>
<path d="M1110 1269 c0 -5 5 -7 10 -4 6 3 10 8 10 11 0 2 -4 4 -10 4 -5 0 -10
-5 -10 -11z"/>
<path d="M1015 1240 c-3 -5 -1 -10 4 -10 6 0 11 5 11 10 0 6 -2 10 -4 10 -3 0
-8 -4 -11 -10z"/>
<path d="M1270 1242 c0 -4 10 -13 23 -21 22 -14 22 -14 3 8 -20 22 -26 25 -26
13z"/>
<path d="M1904 1235 c-18 -14 -18 -14 4 -8 12 3 22 9 22 14 0 12 -3 11 -26 -6z"/>
<path d="M348 1220 c-17 -10 -14 -45 5 -57 6 -4 8 2 4 17 -3 13 -1 30 5 37 12
15 9 16 -14 3z"/>
<path d="M1252 1216 c7 -8 15 -12 17 -11 5 6 -10 25 -20 25 -5 0 -4 -6 3 -14z"/>
<path d="M1719 1186 c22 -23 58 -26 45 -4 -4 6 -9 6 -14 -2 -6 -9 -10 -6 -15
9 -3 11 -14 21 -22 21 -13 0 -12 -5 6 -24z"/>
<path d="M1880 1189 c13 -23 22 -25 13 -2 -5 12 -3 14 8 8 8 -5 11 -4 6 0 -4
5 -14 10 -22 11 -12 2 -12 -2 -5 -17z"/>
<path d="M1936 1198 c3 -5 10 -6 15 -3 13 9 11 12 -6 12 -8 0 -12 -4 -9 -9z"/>
<path d="M1295 1181 c-4 -7 0 -8 11 -4 12 4 15 3 10 -5 -4 -7 -2 -12 4 -12 14
0 8 22 -7 27 -6 2 -14 -1 -18 -6z"/>
<path d="M1915 1181 c-6 -11 13 -26 22 -17 4 3 1 6 -6 6 -7 0 -9 5 -6 10 3 6
4 10 1 10 -3 0 -7 -4 -11 -9z"/>
<path d="M275 1161 c-3 -5 -2 -12 3 -15 5 -3 9 1 9 9 0 17 -3 19 -12 6z"/>
<path d="M1953 1147 c-1 -11 -1 -18 0 -16 2 2 8 11 15 20 9 12 9 16 -1 16 -7
0 -14 -9 -14 -20z"/>
<path d="M1882 1140 c-9 -15 -9 -21 1 -26 6 -4 9 -4 5 1 -4 4 -3 14 4 22 6 7
9 15 7 18 -3 2 -10 -4 -17 -15z"/>
<path d="M1976 1122 c-2 -4 -1 -14 4 -22 7 -11 9 -9 7 8 -1 24 -3 26 -11 14z"/>
<path d="M1729 1118 c-7 -24 -5 -36 5 -32 14 5 17 34 4 34 -4 0 -8 -1 -9 -2z"/>
<path d="M1915 1091 c-3 -5 -2 -12 3 -15 5 -3 9 1 9 9 0 17 -3 19 -12 6z"/>
<path d="M1860 1085 c0 -7 30 -13 34 -7 3 4 -4 9 -15 9 -10 1 -19 0 -19 -2z"/>
<path d="M1941 1077 c2 -1 11 -8 21 -15 12 -10 18 -10 24 -1 4 7 3 9 -4 5 -6
-3 -13 -2 -17 4 -3 5 -11 10 -17 10 -6 0 -9 -1 -7 -3z"/>
<path d="M1270 1060 c0 -5 5 -10 11 -10 5 0 7 5 4 10 -3 6 -8 10 -11 10 -2 0
-4 -4 -4 -10z"/>
<path d="M1867 1059 c7 -7 15 -10 18 -7 3 3 -2 9 -12 12 -14 6 -15 5 -6 -5z"/>
<path d="M1833 1018 c0 -18 -5 -43 -12 -55 -6 -13 -8 -23 -4 -23 4 0 2 -5 -4
-11 -6 -6 -9 -18 -6 -27 4 -9 2 -13 -4 -9 -5 3 -10 0 -10 -8 0 -8 5 -15 10
-15 6 0 3 -8 -6 -18 -10 -10 -17 -23 -17 -28 0 -5 5 -1 11 9 6 9 14 15 18 13
4 -3 7 13 6 35 -1 30 3 44 19 55 11 8 15 14 8 14 -6 0 -12 4 -12 10 0 5 8 7
18 4 10 -4 13 -2 7 3 -12 10 -17 66 -5 58 5 -3 12 0 16 6 4 8 3 9 -4 5 -7 -4
-12 -2 -12 3 0 6 -4 11 -9 11 -4 0 -8 -15 -8 -32z"/>
<path d="M1947 1039 c7 -7 15 -10 18 -7 3 3 -2 9 -12 12 -14 6 -15 5 -6 -5z"/>
<path d="M370 1028 c0 -10 6 -18 13 -18 7 0 8 -3 2 -8 -5 -4 -11 -13 -13 -21
-3 -12 0 -12 12 -1 20 16 20 21 1 46 -13 17 -14 17 -15 2z"/>
<path d="M1979 1013 c-13 -16 -12 -17 4 -4 16 13 21 21 13 21 -2 0 -10 -8 -17
-17z"/>
<path d="M1935 1000 c3 -5 8 -10 11 -10 2 0 4 5 4 10 0 6 -5 10 -11 10 -5 0
-7 -4 -4 -10z"/>
<path d="M316 958 c3 -5 10 -6 15 -3 13 9 11 12 -6 12 -8 0 -12 -4 -9 -9z"/>
<path d="M1950 958 c0 -4 4 -8 9 -8 6 0 12 4 15 8 3 5 -1 9 -9 9 -8 0 -15 -4
-15 -9z"/>
<path d="M744 941 c0 -11 5 -17 13 -14 10 4 11 9 2 19 -15 18 -15 18 -15 -5z"/>
<path d="M1834 919 c-3 -6 -2 -15 3 -20 5 -5 9 -1 9 11 0 23 -2 24 -12 9z"/>
<path d="M761 904 c0 -11 3 -14 6 -6 3 7 2 16 -1 19 -3 4 -6 -2 -5 -13z"/>
<path d="M1745 907 c-14 -11 -15 -16 -5 -22 9 -5 11 -4 6 3 -4 7 -1 12 8 12 9
0 16 5 16 10 0 13 -3 13 -25 -3z"/>
<path d="M790 879 c0 -5 5 -7 10 -4 6 3 10 8 10 11 0 2 -4 4 -10 4 -5 0 -10
-5 -10 -11z"/>
<path d="M1641 838 c-18 -21 -30 -42 -27 -45 3 -4 6 -3 6 2 0 4 7 2 15 -5 11
-9 15 -9 15 -1 0 7 5 9 12 5 7 -4 8 -3 4 4 -5 8 0 12 12 12 11 0 25 6 31 13 8
10 7 14 -4 14 -8 0 -12 -4 -9 -9 3 -4 -2 -8 -10 -8 -23 0 -19 21 4 27 12 3 19
10 17 16 -7 23 -35 13 -66 -25z m23 1 c-10 -12 -18 -23 -16 -25 1 -2 0 -4 -3
-4 -9 0 -6 10 12 34 10 13 20 22 22 20 2 -2 -4 -13 -15 -25z"/>
<path d="M1266 843 c-6 -14 -5 -15 5 -6 7 7 10 15 7 18 -3 3 -9 -2 -12 -12z"/>
<path d="M1735 840 c-3 -6 1 -7 9 -4 18 7 21 14 7 14 -6 0 -13 -4 -16 -10z"/>
<path d="M880 830 c0 -5 -7 -7 -15 -4 -11 5 -13 2 -9 -9 7 -19 34 -11 34 9 0
8 -2 14 -5 14 -3 0 -5 -4 -5 -10z"/>
<path d="M1810 820 c0 -5 5 -10 11 -10 5 0 7 5 4 10 -3 6 -8 10 -11 10 -2 0
-4 -4 -4 -10z"/>
<path d="M1754 807 c-4 -7 -4 -9 1 -5 4 4 14 3 22 -3 8 -7 13 -8 13 -1 0 15
-28 23 -36 9z"/>
<path d="M370 806 c0 -2 7 -7 16 -10 8 -3 12 -2 9 4 -6 10 -25 14 -25 6z"/>
<path d="M1710 799 c0 -5 5 -7 10 -4 6 3 10 8 10 11 0 2 -4 4 -10 4 -5 0 -10
-5 -10 -11z"/>
<path d="M434 776 c0 -12 6 -23 13 -23 9 0 10 4 3 12 -5 7 -7 14 -4 17 3 3 1
8 -3 11 -5 3 -9 -5 -9 -17z"/>
<path d="M1680 786 c0 -2 7 -7 16 -10 8 -3 12 -2 9 4 -6 10 -25 14 -25 6z"/>
<path d="M1748 772 c4 -11 1 -13 -8 -7 -9 5 -11 4 -6 -4 4 -7 -2 -15 -16 -20
-22 -10 -22 -10 4 -8 15 1 25 4 22 8 -2 4 3 12 11 19 19 16 19 27 1 27 -8 0
-12 -6 -8 -15z"/>
<path d="M1585 770 c-4 -6 -10 -8 -15 -5 -5 3 -11 1 -14 -4 -8 -13 22 -7 36 7
7 7 9 12 6 12 -4 0 -10 -5 -13 -10z"/>
<path d="M512 756 c-16 -8 -19 -15 -12 -26 8 -13 10 -12 10 3 0 19 15 23 25 7
4 -6 11 -7 17 -4 7 4 8 2 4 -5 -9 -13 31 -54 44 -46 5 3 10 -1 13 -7 2 -7 -5
-18 -16 -24 -17 -10 -18 -12 -3 -17 10 -4 15 -3 12 2 -11 17 22 19 45 4 12 -9
19 -11 15 -5 -4 7 -3 12 3 12 19 0 21 -19 4 -29 -10 -6 -13 -11 -6 -11 6 0 15
5 18 10 7 12 25 4 25 -11 0 -6 -6 -7 -12 -3 -9 5 -9 2 1 -9 17 -22 35 -22 27
-1 -5 14 -4 15 9 4 8 -7 15 -9 16 -4 0 5 4 0 9 -11 7 -17 9 -17 9 -2 1 9 5 17
11 17 5 0 7 -7 4 -15 -8 -19 10 -19 26 0 7 8 16 12 21 9 5 -3 12 2 15 10 3 9
10 14 14 11 5 -3 7 3 6 12 -5 30 -32 26 -46 -6 -7 -17 -17 -28 -22 -25 -6 4
-5 10 3 15 12 8 12 11 -1 18 -8 5 -17 8 -21 5 -4 -2 -9 1 -11 8 -2 6 -13 13
-24 14 -53 6 -119 35 -119 51 0 4 -3 7 -7 6 -5 -2 -8 2 -8 7 0 6 -8 10 -17 8
-12 -2 -18 4 -18 17 0 23 -31 28 -63 11z m58 -1 c0 -7 -30 -13 -34 -7 -3 4 4
9 15 9 10 1 19 0 19 -2z m20 -40 c0 4 6 2 13 -4 8 -6 17 -7 21 -3 4 4 7 2 6
-3 -4 -20 0 -36 8 -31 4 2 14 1 21 -3 9 -6 10 -11 2 -15 -6 -4 -11 -2 -11 4 0
6 -4 9 -9 5 -6 -3 -15 4 -21 15 -6 11 -15 18 -19 16 -5 -3 -17 4 -27 17 -16
18 -16 19 -1 8 9 -7 17 -10 17 -6z m149 -78 c9 -8 24 -13 34 -12 9 2 17 -1 17
-6 0 -5 -3 -9 -7 -10 -5 0 -15 -2 -25 -4 -9 -2 -31 10 -50 26 -30 26 -31 28
-9 24 13 -2 31 -11 40 -18z m104 -12 c-3 -9 -8 -14 -10 -11 -3 3 -2 9 2 15 9
16 15 13 8 -4z"/>
<path d="M700 647 c0 -3 12 -12 26 -22 15 -9 23 -12 20 -6 -7 11 -46 35 -46
28z"/>
<path d="M528 705 c4 -13 9 -24 12 -23 3 1 16 -4 30 -11 23 -11 24 -11 6 3
-10 9 -23 13 -27 10 -5 -3 -9 4 -9 15 0 11 -4 22 -9 25 -5 4 -6 -5 -3 -19z"/>
<path d="M1650 719 c0 -5 5 -7 10 -4 6 3 10 8 10 11 0 2 -4 4 -10 4 -5 0 -10
-5 -10 -11z"/>
<path d="M1676 702 c-2 -4 -1 -14 4 -22 7 -11 9 -9 7 8 -1 24 -3 26 -11 14z"/>
<path d="M350 686 c0 -2 7 -7 16 -10 8 -3 12 -2 9 4 -6 10 -25 14 -25 6z"/>
<path d="M1660 669 c0 -6 -6 -9 -13 -6 -8 3 -14 -1 -14 -8 0 -8 7 -11 15 -7
11 4 13 1 7 -9 -4 -8 -4 -11 0 -6 10 8 18 47 10 47 -3 0 -5 -5 -5 -11z"/>
<path d="M1576 653 c-6 -14 -5 -15 5 -6 7 7 10 15 7 18 -3 3 -9 -2 -12 -12z"/>
<path d="M553 645 c0 -8 4 -12 9 -9 5 3 6 10 3 15 -9 13 -12 11 -12 -6z"/>
<path d="M1396 652 c-3 -5 1 -9 9 -9 8 0 12 4 9 9 -3 4 -7 8 -9 8 -2 0 -6 -4
-9 -8z"/>
<path d="M370 639 c0 -5 5 -7 10 -4 6 3 10 8 10 11 0 2 -4 4 -10 4 -5 0 -10
-5 -10 -11z"/>
<path d="M427 639 c7 -7 15 -10 18 -7 3 3 -2 9 -12 12 -14 6 -15 5 -6 -5z"/>
<path d="M621 624 c0 -11 3 -14 6 -6 3 7 2 16 -1 19 -3 4 -6 -2 -5 -13z"/>
<path d="M1606 618 c3 -5 10 -6 15 -3 13 9 11 12 -6 12 -8 0 -12 -4 -9 -9z"/>
<path d="M435 611 c-3 -5 -2 -12 3 -15 5 -3 9 1 9 9 0 17 -3 19 -12 6z"/>
<path d="M843 583 c-3 -8 -8 -10 -12 -5 -3 5 -14 -1 -24 -14 -14 -19 -15 -22
-2 -18 8 3 15 10 15 15 0 4 7 6 16 2 11 -4 12 -8 4 -13 -8 -5 -7 -9 3 -13 12
-4 14 1 10 26 -4 29 -3 30 10 13 11 -15 18 -16 34 -8 11 6 23 8 27 5 3 -3 6
-1 6 5 0 13 0 13 -48 17 -22 2 -35 -2 -39 -12z"/>
<path d="M670 586 c0 -2 7 -7 16 -10 8 -3 12 -2 9 4 -6 10 -25 14 -25 6z"/>
<path d="M1535 579 c-4 -6 -4 -13 -1 -16 3 -4 6 -1 6 6 0 7 5 9 12 5 7 -4 8
-3 4 4 -9 15 -13 15 -21 1z"/>
<path d="M737 573 c-4 -3 -7 -11 -7 -17 0 -6 5 -5 12 2 6 6 9 14 7 17 -3 3 -9
2 -12 -2z"/>
<path d="M535 561 c-3 -5 -2 -12 3 -15 5 -3 9 1 9 9 0 17 -3 19 -12 6z"/>
<path d="M1390 560 c0 -5 5 -10 11 -10 5 0 7 5 4 10 -3 6 -8 10 -11 10 -2 0
-4 -4 -4 -10z"/>
<path d="M1355 551 c-3 -5 -2 -12 3 -15 5 -3 9 1 9 9 0 17 -3 19 -12 6z"/>
<path d="M567 539 c7 -7 15 -10 18 -7 3 3 -2 9 -12 12 -14 6 -15 5 -6 -5z"/>
<path d="M600 515 c-19 -22 -8 -25 13 -3 9 10 13 18 8 18 -5 0 -14 -7 -21 -15z"/>
<path d="M1270 522 c0 -5 7 -9 15 -9 8 0 12 4 9 9 -3 4 -9 8 -15 8 -5 0 -9 -4
-9 -8z"/>
<path d="M637 513 c-10 -9 -9 -23 1 -23 5 0 9 7 9 15 0 17 -1 18 -10 8z"/>
<path d="M1421 504 c0 -11 3 -14 6 -6 3 7 2 16 -1 19 -3 4 -6 -2 -5 -13z"/>
<path d="M670 495 c5 -7 6 -16 2 -21 -4 -5 -3 -5 2 -1 15 12 15 34 0 34 -9 0
-11 -4 -4 -12z"/>
<path d="M735 500 c-3 -5 -1 -10 4 -10 6 0 11 5 11 10 0 6 -2 10 -4 10 -3 0
-8 -4 -11 -10z"/>
<path d="M1333 495 c0 -8 4 -12 9 -9 5 3 6 10 3 15 -9 13 -12 11 -12 -6z"/>
<path d="M1364 503 c4 -4 16 -8 28 -10 28 -4 18 6 -12 12 -12 2 -20 1 -16 -2z"/>
<path d="M709 477 c6 -8 7 -18 3 -22 -4 -5 -1 -5 6 -1 10 6 10 11 1 22 -6 8
-14 14 -16 14 -3 0 0 -6 6 -13z"/>
<path d="M1055 481 c-3 -5 -2 -12 3 -15 5 -3 9 1 9 9 0 17 -3 19 -12 6z"/>
<path d="M1174 469 c0 -12 -5 -24 -13 -27 -8 -3 -11 0 -7 6 3 6 1 14 -5 18 -8
5 -9 3 -5 -5 6 -8 2 -11 -10 -9 -11 2 -22 10 -26 18 -5 13 -7 12 -7 -2 -1 -9
4 -20 9 -23 6 -4 7 -12 4 -18 -5 -8 -3 -8 7 1 15 14 33 16 25 3 -4 -5 4 -7 16
-3 16 4 19 2 13 -8 -5 -8 -4 -11 3 -6 6 4 8 14 5 23 -4 10 -2 14 5 9 6 -3 14
-2 17 4 4 6 1 9 -6 8 -7 -2 -13 2 -14 9 0 6 -3 14 -6 18 -4 3 -6 -4 -5 -16z"/>
<path d="M854 466 c1 -8 5 -18 8 -22 4 -3 5 1 4 10 -1 8 -5 18 -8 22 -4 3 -5
-1 -4 -10z"/>
<path d="M910 439 c0 -5 5 -7 10 -4 6 3 10 8 10 11 0 2 -4 4 -10 4 -5 0 -10
-5 -10 -11z"/>
<path d="M987 433 c3 -7 6 -13 8 -13 1 0 7 6 13 13 8 10 6 13 -7 13 -11 0 -17
-6 -14 -13z"/>
<path d="M1030 428 c-10 -21 -10 -21 3 -6 8 10 18 14 22 10 5 -4 5 -1 1 6 -10
17 -14 15 -26 -10z"/>
<path d="M1216 433 c-6 -14 -5 -15 5 -6 7 7 10 15 7 18 -3 3 -9 -2 -12 -12z"/>
<path d="M955 431 c-3 -5 -2 -12 3 -15 5 -3 9 1 9 9 0 17 -3 19 -12 6z"/>
</g>
</svg>
